<?xml version="1.0" standalone="no"?>
<!DOCTYPE svg PUBLIC "-//W3C//DTD SVG 1.1//EN" "http://www.w3.org/Graphics/SVG/1.1/DTD/svg11.dtd" >
<svg xmlns="http://www.w3.org/2000/svg">
<metadata></metadata>
<defs>
<font id="mawns_serifregular" horiz-adv-x="1042" >
<font-face units-per-em="2048" ascent="1536" descent="-512" />
<missing-glyph horiz-adv-x="567" />
<glyph horiz-adv-x="0" />
<glyph unicode="&#xd;" horiz-adv-x="567" />
<glyph unicode=" "  horiz-adv-x="567" />
<glyph unicode="&#x09;" horiz-adv-x="567" />
<glyph unicode="&#xa0;" horiz-adv-x="567" />
<glyph unicode="!" horiz-adv-x="290" d="M29 1278q-6 41 2 76q6 29 23.5 52.5t56.5 23.5h61q39 0 57.5 -24t24.5 -52q8 -35 2 -76l-84 -774h-61zM59 61q0 35 23.5 58.5t58.5 23.5t59.5 -23.5t24.5 -58.5t-24.5 -58t-59.5 -23t-58.5 23.5t-23.5 57.5z" />
<glyph unicode="&#x22;" horiz-adv-x="333" d="M10 1368l127 109q8 -74 4 -144q-4 -59 -18 -123.5t-49 -109.5q0 -4 -5.5 3t-9.5 15q-8 8 -14 23q8 27 8 61q0 29 -8 71t-35 95zM174 1368l127 109q8 -74 4 -144q-4 -59 -18.5 -123.5t-48.5 -109.5q-2 -4 -6.5 3t-10.5 15q-8 8 -14 23q10 27 10 61q0 29 -8 71t-35 95z" />
<glyph unicode="#" horiz-adv-x="1255" d="M14 504v61h1067v-61h-1067zM53 2l512 1534h74l-512 -1534h-74zM190 1006v61h1067v-61h-1067zM586 2l512 1534h73l-512 -1534h-73z" />
<glyph unicode="$" horiz-adv-x="899" d="M20 0l41 12v21q0 41 31 51t66 -12q57 -43 125.5 -67.5t144.5 -24.5q94 0 176 35.5t143.5 97t97.5 143.5t36 174q0 84 -21.5 164t-70 146.5t-124 113.5t-182.5 68q-111 33 -174 107.5t-63 152.5q0 84 18.5 141t51 93t75.5 51.5t92 15.5q59 0 111.5 -36t85.5 -93 q20 -35 35.5 -76t15.5 -76v-22l66 -17v357l-41 -13v-22q0 -41 -25.5 -54.5t-58.5 11.5q-53 53 -122 81.5t-144 28.5q-78 0 -147 -29.5t-120 -80.5t-80.5 -120t-29.5 -146q0 -94 33.5 -157t88 -105t119 -66.5t125.5 -42.5q123 -37 201 -129t78 -246q0 -78 -25.5 -144.5 t-68.5 -117.5t-101.5 -80t-126.5 -29q-59 0 -111.5 20.5t-93.5 74.5q-27 33 -41 74.5t-18 88.5v21l-68 16v-354zM426 -131v1817h45v-1817h-45z" />
<glyph unicode="%" horiz-adv-x="1011" d="M0 1161q0 76 15.5 141.5t46 114.5t77.5 78t113 29t113 -31q90 -41 155.5 -41t110.5 16q53 18 90 56h74l-512 -1534h-74l485 1454q-63 -29 -135 -25t-131 19q39 -51 57.5 -122t18.5 -155q0 -76 -15.5 -141.5t-46 -114.5t-79 -77.5t-111.5 -28.5q-66 0 -113 28.5 t-77.5 77.5t-46 114.5t-15.5 141.5zM98 1163q0 -68 7.5 -128t24.5 -104t47 -69.5t75 -25.5q43 0 72.5 25.5t48 69.5t26 104.5t7.5 127.5q0 68 -7.5 127.5t-26 103.5t-48 69.5t-72.5 25.5q-45 0 -75 -25.5t-47 -69.5t-24.5 -103.5t-7.5 -127.5zM496 338q0 76 15 141.5 t46 114.5t79 77.5t114 28.5q63 0 111 -28.5t79 -77.5t46 -114.5t15 -141.5q0 -74 -15 -139.5t-46 -114.5t-79 -78t-111 -29q-66 0 -114 29t-79 78t-46 114.5t-15 139.5zM594 340q0 -68 7 -127t25.5 -104.5t48.5 -71t75 -25.5q43 0 72.5 25.5t48 71t25.5 104.5t7 127t-7 127 t-25.5 104t-48 71t-72.5 26q-45 0 -75 -26t-48.5 -71t-25.5 -104t-7 -127z" />
<glyph unicode="&#x26;" horiz-adv-x="1167" d="M0 0l14 41h21q23 0 50.5 12.5t45.5 24.5q16 10 27.5 21.5t19.5 21.5t17 18l245 424q-92 12 -171 54t-137 109t-91 151t-33 178q0 102 39 192t106.5 158t157.5 106.5t193 38.5q86 0 163.5 -27.5t141 -76.5t109 -116.5t65.5 -147.5q4 -18 6 -39q2 -16 3 -37t-3 -43l-22 -37 q-10 70 -44 131.5t-85.5 105.5t-117 69.5t-138.5 25.5q-80 0 -151 -31t-123 -83t-82.5 -122.5t-30.5 -150.5q0 -70 22.5 -132.5t63.5 -112.5t96 -85t121 -49h667v-53h-268v-351v-135v-10l8 -82q10 -59 46 -95t77 -48q-6 12 -6 26q0 25 17.5 42.5t41.5 17.5q25 0 42.5 -17.5 t17.5 -42.5q0 -23 -19 -41q-29 -37 -67.5 -47t-87.5 -10q-39 0 -82 13.5t-82 42t-66.5 76.5t-36.5 120h-569v2h-131zM399 53h301v486h-26z" />
<glyph unicode="'" horiz-adv-x="219" d="M39 1370l127 107q8 -76 4 -144q-4 -59 -18.5 -122.5t-49.5 -110.5q0 -2 -5 4t-9 16q-8 8 -14 23q8 27 8 61q0 29 -8 71t-35 95z" />
<glyph unicode="(" horiz-adv-x="333" d="M8 692q0 154 24.5 292t68.5 250t104.5 191.5t132.5 114.5l12 -94q-45 -39 -82 -111.5t-64.5 -171t-43 -217.5t-15.5 -250q0 -129 15.5 -246.5t41 -215t62.5 -171t80 -114.5l-25 -94q-68 41 -125 120.5t-98 190t-64.5 245t-23.5 281.5z" />
<glyph unicode=")" horiz-adv-x="335" d="M-2 -47q45 39 82 111.5t64.5 171t43 218t15.5 251.5q0 129 -15.5 246.5t-42 215t-63.5 170t-80 113.5l27 94q68 -41 125 -121t98 -190.5t64.5 -244.5t23.5 -281q0 -154 -24.5 -292.5t-69.5 -250t-105.5 -191t-130.5 -114.5z" />
<glyph unicode="*" horiz-adv-x="630" d="M20 1090v61h234l-129 195l51 32l137 -204l152 196l47 -39l-139 -180h229v-61h-233l129 -195l-52 -33l-137 205l-151 -197l-47 39l139 181h-230z" />
<glyph unicode="+" horiz-adv-x="706" d="M68 670v61h581v-61h-581zM328 410v581h61v-581h-61z" />
<glyph unicode="," horiz-adv-x="239" d="M43 70q0 35 23.5 58.5t58.5 23.5t59.5 -24t24.5 -58q0 -51 -13.5 -87t-29.5 -59q-20 -27 -43 -45q-4 6 -8 15q-2 2 -3 5t-3 5l-5 4q20 41 21 80q-35 0 -58.5 23.5t-23.5 58.5z" />
<glyph unicode="-" horiz-adv-x="745" d="M88 549v61h582v-61h-582z" />
<glyph unicode="." horiz-adv-x="243" d="M43 68q0 35 24.5 58.5t59.5 23.5t58.5 -24t23.5 -58q0 -35 -23.5 -58.5t-58.5 -23.5t-59.5 23.5t-24.5 58.5z" />
<glyph unicode="/" horiz-adv-x="544" d="M-18 0l512 1534h71l-512 -1534h-71z" />
<glyph unicode="0" horiz-adv-x="1173" d="M39 768q0 162 32.5 304t100.5 248.5t170.5 168t241.5 61.5t242.5 -61.5t171 -168t100 -248.5t32.5 -304t-32.5 -304t-100 -248.5t-171 -168t-242.5 -61.5t-241.5 61.5t-170.5 168t-100.5 248.5t-32.5 304zM252 770q0 -147 16.5 -275t54 -224.5t101.5 -152t160 -55.5 t160.5 55.5t102.5 152t54.5 224.5t16.5 275t-16.5 275.5t-54.5 224.5t-102.5 151.5t-160.5 55.5t-160 -55.5t-101.5 -151.5t-54 -224t-16.5 -276z" />
<glyph unicode="1" horiz-adv-x="477" d="M0 -2l12 41h21q47 0 78 37q23 27 22 61v1102q0 41 -29.5 69.5t-70.5 28.5h-21l-12 41l342 170v-1421q4 -37 32.5 -62.5t67.5 -25.5h21l12 -41h-4h-471z" />
<glyph unicode="2" horiz-adv-x="851" d="M25 1161q0 80 29.5 149.5t81.5 122t123 83t151 30.5t149.5 -30.5t121.5 -83t83 -122t31 -149.5q0 -41 -10.5 -80t-23.5 -70.5t-25.5 -52t-14.5 -24.5l-455 -723h418q33 2 59 22q37 31 37 78v21l41 12v-133v-211h-780l512 803q45 70 71.5 126t38 105t7.5 95.5t-23 95.5 q-29 78 -107.5 128t-172.5 50q-59 0 -110.5 -20.5t-92.5 -56.5t-67.5 -85t-35.5 -106z" />
<glyph unicode="3" horiz-adv-x="1052" d="M30 429q-1 22 3 44l22 37q10 -72 44 -132.5t85.5 -104.5t117 -69.5t138.5 -25.5q80 0 151 31t123 83t82.5 122.5t30.5 150.5t-30.5 151.5t-82.5 124t-123 83t-151 30.5q-57 0 -112 -16l336 545h-408h-12q-37 0 -64 -23q-37 -31 -37 -78v-20l-39 -12v133v43v12h789v-2h129 l-12 -41h-21q-25 0 -52.5 -12.5t-43.5 -24.5t-27.5 -22.5t-19.5 -20.5t-17 -18l-245 -422q90 -12 168.5 -55t137 -109t91.5 -149.5t33 -178.5q0 -102 -39 -193t-106.5 -159t-157.5 -106.5t-193 -38.5q-86 0 -164 27.5t-141 76.5t-108.5 116.5t-65.5 147.5q-4 16 -6 37 q-2 16 -3 38z" />
<glyph unicode="4" horiz-adv-x="1064" d="M27 438l761 1098h136v-1012h135l-2 -86h-133v-311q4 -37 32.5 -62.5t67.5 -25.5h20l15 -39h-4h-473l12 39h20q47 0 78 37q23 27 23 63v299h-688zM145 524h570v828z" />
<glyph unicode="5" horiz-adv-x="1048" d="M28 431q-1 22 3 44l24 37q10 -72 44 -132.5t85.5 -105.5t116 -70.5t137.5 -25.5q80 0 152 31t124 83t82.5 123.5t30.5 151.5q0 72 -24.5 136.5t-68.5 115.5t-103.5 85t-128.5 46q-8 2 -18.5 2h-14.5h-387l127 584h694v-205l-41 12v23q0 37 -23.5 67.5t-58.5 30.5h-364 l-107 -483h211q16 0 33 -2t33 -4q90 -12 169 -55t136 -109t90 -149.5t33 -178.5q0 -102 -39 -192t-106.5 -157.5t-157.5 -106.5t-193 -39q-86 0 -165 27.5t-141 76.5t-108.5 116.5t-66.5 147.5q-4 16 -6 37q-2 16 -3 38z" />
<glyph unicode="6" horiz-adv-x="989" d="M33 590q0 152 39 273.5t102.5 219t144 170t166.5 125.5q201 125 455 183q-170 -74 -313 -187q-61 -47 -122 -108.5t-112 -135t-89 -160.5t-52 -188q14 29 72.5 51.5t136.5 29.5t166 -9t161.5 -65.5t121.5 -138.5t48 -226q0 -104 -37.5 -186t-100 -138.5t-142.5 -86 t-162 -29.5t-167 27.5t-155.5 95t-115.5 184.5t-45 299zM228 523.5q3 -60.5 15.5 -128t35.5 -131.5q25 -63 47 -105t49.5 -66.5t62.5 -34t80 -9.5t86 30t71 82t47 120.5t17 148.5t-17 146.5t-48 116.5t-71 81t-85 39q-70 10 -140.5 -11t-133.5 -87q-10 -31 -14.5 -81 t-1.5 -110.5z" />
<glyph unicode="7" horiz-adv-x="1069" d="M-4 1343v134v45v12h1073l-12 -41h-21q-23 0 -42 -3t-36 -17q-12 -10 -25 -28t-30 -50q-141 -346 -254 -621q-47 -117 -93 -229.5t-82 -201.5t-58.5 -145.5t-24.5 -58.5q-8 -23 -1 -41t22.5 -30.5t37 -19.5t42.5 -7h22l12 -41h-526l14 41h21q23 0 46 6t40 23 q14 12 24.5 25.5t26.5 41.5l557 1340h-582h-12q-35 0 -61 -23q-37 -31 -37 -78v-20z" />
<glyph unicode="8" horiz-adv-x="907" d="M27 412q0 70 20.5 132t58 114.5t90 91t113.5 61.5q-106 43 -173.5 138t-67.5 218q0 80 29.5 149.5t81.5 122t122 83t150 30.5t149.5 -30.5t121.5 -83t83 -122t31 -149.5q0 -123 -68 -218t-174 -138q61 -23 113.5 -61.5t89.5 -91t58.5 -115t21.5 -131.5q0 -88 -34 -166 t-91.5 -135.5t-135 -91t-165.5 -33.5t-165 33.5t-134.5 91t-91 135.5t-33.5 166zM215 414q0 -76 18.5 -143.5t51 -118t75 -79t91.5 -28.5t92 28.5t74.5 79t50 118t18.5 143.5t-18.5 143.5t-50 118.5t-74.5 79.5t-92 28.5t-91.5 -28.5t-75 -79.5t-51 -119t-18.5 -143z M238 1171q0 -70 16 -130t46 -105t69 -71.5t82 -26.5q45 0 83.5 26.5t67.5 71.5t45.5 105.5t16.5 129.5q0 70 -16.5 130.5t-45.5 105.5t-67.5 71.5t-83.5 26.5q-43 0 -82 -26.5t-69 -71.5t-46 -105.5t-16 -130.5z" />
<glyph unicode="9" horiz-adv-x="987" d="M29 1108q0 104 37.5 186t100 138.5t142.5 86t162 29.5t167 -26.5t155.5 -94t115.5 -185.5t45 -298q0 -152 -38.5 -274.5t-103 -220t-145.5 -170t-167 -125.5q-201 -125 -453 -181q170 74 313 187q61 47 122 107.5t112 134t88 160.5t53 190q-14 -29 -72.5 -52.5 t-136 -29.5t-166 9t-162 64.5t-121.5 137.5t-48 227zM248 1102q0 -80 17.5 -146.5t48 -117t70.5 -81t85 -38.5q70 -10 140.5 11t133.5 87q8 31 13.5 82t2.5 111.5t-15.5 127t-34.5 130.5q-25 63 -48.5 105t-51 66.5t-61.5 35t-79 10.5q-47 0 -87 -30t-69.5 -82t-47 -121.5 t-17.5 -149.5z" />
<glyph unicode=":" horiz-adv-x="233" d="M33 59q0 35 23.5 58.5t58.5 23.5t58.5 -23.5t23.5 -58.5t-23.5 -58.5t-58.5 -23.5t-58.5 24t-23.5 58zM33 711q0 35 23.5 59.5t58.5 24.5t58.5 -25t23.5 -59q0 -35 -23.5 -58.5t-58.5 -23.5t-58.5 23.5t-23.5 58.5z" />
<glyph unicode=";" horiz-adv-x="249" d="M39 59q0 35 23.5 58.5t58.5 23.5t58.5 -23.5t23.5 -58.5q0 -51 -13.5 -86.5t-29.5 -58.5q-18 -27 -41 -45l-19 29q10 23 14.5 43t4.5 36q-35 0 -57.5 24t-22.5 58zM39 711q0 35 23.5 59.5t58.5 24.5t58.5 -25t23.5 -59q0 -35 -23.5 -58.5t-58.5 -23.5t-58.5 23.5 t-23.5 58.5z" />
<glyph unicode="&#x3c;" horiz-adv-x="712" d="M53 782l510 512h90l-512 -512l512 -514h-90z" />
<glyph unicode="=" horiz-adv-x="747" d="M82 508v61h582v-61h-582zM82 709v61h582v-61h-582z" />
<glyph unicode="&#x3e;" horiz-adv-x="694" d="M37 276l512 515l-512 512h90l510 -512l-510 -515h-90z" />
<glyph unicode="?" horiz-adv-x="714" d="M-6 1497q111 63 244 64q102 0 192 -39t157.5 -106.5t106.5 -158t39 -192.5q0 -94 -32.5 -177t-90 -148.5t-136.5 -109.5t-169 -57l-22 -155h-80l-17 178q4 0 15.5 1t21.5 3q70 10 129.5 44t102.5 85t67.5 115.5t24.5 138.5q0 80 -31 150.5t-83 123t-122.5 83t-150.5 30.5 q-59 0 -105 -14zM158 57q0 35 24.5 58.5t59.5 23.5t58.5 -23.5t23.5 -58.5t-24 -59.5t-58 -24.5q-35 0 -59.5 25t-24.5 59z" />
<glyph unicode="@" horiz-adv-x="1449" d="M47 569q0 162 53.5 304.5t145.5 249t215 168t262 61.5t262 -61.5t214 -168t144.5 -249t53.5 -304.5q0 -147 -33 -238t-81 -140.5t-103.5 -65.5t-98.5 -16q-45 0 -79.5 11t-59.5 27q-29 18 -51 41l-37 56q-16 -14 -46 -25.5t-65.5 -18.5t-69.5 -11.5t-57 -4.5 q-45 0 -84.5 17.5t-69.5 46t-47.5 68.5t-17.5 85t17.5 85t47.5 70t69.5 47.5t84.5 17.5h234v145q2 51 -17.5 83t-49 46t-65.5 14t-65.5 -12t-50 -35.5t-20.5 -54.5q0 -39 -13.5 -58.5t-62.5 -19.5q-51 0 -63.5 25.5t-12.5 54.5q0 8 10.5 32.5t38 50.5t76.5 45t127 19 q111 0 179.5 -22.5t107.5 -56t52 -74.5t13 -80v-207q0 -84 2 -188q0 -35 23 -62q10 -16 33 -26q39 0 62.5 51t33.5 115q12 74 16 167q0 145 -40 274.5t-105.5 225.5t-153.5 151.5t-182 55.5q-96 0 -183 -55.5t-154 -151.5t-105.5 -225t-38.5 -275q0 -147 38.5 -276 t105.5 -225.5t154 -151.5t183 -55q74 0 143.5 34.5t128.5 96.5l15 -4l190 26q-92 -109 -214 -170t-263 -61q-139 0 -262 61.5t-215 168t-145.5 249t-53.5 303.5zM582 414q0 -72 26.5 -126.5t65.5 -54.5q41 0 73.5 9.5t55.5 21.5q27 14 47 33v297h-164q-18 0 -37.5 -14.5 t-34 -39t-23.5 -57t-9 -69.5z" />
<glyph unicode="A" horiz-adv-x="1312" d="M0 0l14 41h21q49 0 82 29q14 12 23.5 26.5t19.5 42.5l364 1256q4 15 4 28q0 25 -12 43q-18 30 -59 29h-21l-12 39h131h344h4l-12 -39h-4h-17q-41 1 -59 -29q-12 -19 -12 -43q0 -13 4 -28l364 -1256q10 -29 19.5 -43t23.5 -26q33 -29 82 -29h21l14 -41h-346h-4l14 41h21 q40 1 62 27q15 18 15 39q0 11 -4 22l-139 485h-430l-139 -485q-3 -11 -3 -21q0 -22 16 -40q22 -26 61 -27h22l12 -41h-4h-481zM528 653h408l-205 711z" />
<glyph unicode="B" horiz-adv-x="1050" d="M2 2l14 41h21q47 0 78 37q10 12 16 28.5t6 32.5v1256q0 41 -29.5 69.5t-70.5 28.5h-21l-14 41h344l221 2q78 0 147.5 -30.5t122 -83t82 -122t29.5 -149.5q0 -117 -64.5 -211t-166.5 -139q63 -18 118.5 -56t94.5 -90.5t61.5 -116t22.5 -132.5q0 -86 -33 -162t-89 -131.5 t-131 -88t-161 -32.5l-418 8h-180zM346 47h156q61 0 116.5 28.5t97.5 78t65.5 115t23.5 141.5q0 74 -23.5 141t-65.5 118.5t-97.5 82t-116.5 30.5h-156v-735zM346 819h135q53 0 101.5 27.5t84 74t56 109t20.5 131.5q0 70 -20.5 130.5t-56 105.5t-83.5 70.5t-102 25.5h-133z " />
<glyph unicode="C" horiz-adv-x="1140" d="M-4 764q0 162 53 304t144.5 248.5t214 168t262.5 61.5h16q65 0 127 -14q59 -16 123.5 -52t112.5 -114q10 -18 19 -19t17.5 9t12.5 29.5t6 39.5v21l39 12v-395l-92 16q0 92 -30 167t-80 128t-119.5 83t-151.5 30q-96 0 -180 -57.5t-146.5 -155.5t-98.5 -229.5t-36 -278.5 t36 -278.5t98.5 -229.5t146 -155.5t180.5 -57.5q86 0 155.5 37t119.5 96.5t78 134t28 150.5l86 16q0 -92 -29 -182t-87 -159.5t-145.5 -112.5t-205.5 -43q-139 0 -262 61t-214.5 167.5t-144.5 249t-53 304.5z" />
<glyph unicode="D" horiz-adv-x="1415" d="M0 0l12 39h21q47 0 78 37q23 27 22 63l2 1256q0 41 -29.5 69.5t-70.5 28.5h-23l-12 41h225q86 4 215.5 8t264.5 4q139 0 262 -61.5t214 -168t144 -248.5t53 -304t-53 -304.5t-144 -249t-214 -167.5t-262 -61q-115 0 -235 6t-210 12h-260zM342 59h363q94 0 178 55.5 t147.5 151.5t99 225.5t35.5 274.5q0 147 -35.5 276t-99 225.5t-147.5 152t-178 55.5h-18.5t-42.5 -1t-58.5 -1h-65.5h-178v-1414z" />
<glyph unicode="E" d="M2 0l12 39h21q47 0 78 37q23 27 22 63v1254v2q0 41 -28.5 69.5t-69.5 28.5h-23l-12 41h277h65h660v-12v-45v-134l-41 13v20q0 47 -37 78q-27 23 -62 23h-12h-508v-670l307 2q35 0 64 22q35 29 35 78v21l41 12v-125v-53v-123l-41 12v21q0 49 -35 78q-28 22 -61 22h-3h-307 v-719h561q33 2 62 23q35 31 34 78v20l41 12v-133v-43v-12h-698h-27h-315z" />
<glyph unicode="F" horiz-adv-x="987" d="M0 2l12 41h21q47 0 78 37q23 27 22 63v1254q0 41 -28.5 69.5t-69.5 28.5h-23l-12 41h276h64h661v-12v-45v-133l-40 12v20q0 47 -37 78q-27 23 -62 23h-12h-508v-670l307 2q35 0 64 23q35 31 35 77v21l40 12v-123v-55v-123l-40 12v21q0 47 -35 78q-28 22 -61 22h-3h-307 v-637q4 -43 32.5 -69.5t67.5 -26.5h21l12 -41h-2h-473z" />
<glyph unicode="G" horiz-adv-x="1269" d="M2 772q0 162 53.5 304.5t144.5 249t214 167.5t262 61h16q66 0 127 -14q59 -16 124 -52t112 -114q10 -18 20 -19t17.5 9t12.5 28.5t5 39.5v22l39 12v-397l-92 18q0 92 -30 167t-80 128.5t-119.5 83t-151.5 29.5q-96 0 -179 -57.5t-146.5 -155.5t-99.5 -229t-36 -279 q0 -147 36 -278t99.5 -229.5t146.5 -156t179 -57.5q80 0 147.5 32t120.5 85v199v65v154q-4 37 -31.5 62.5t-66.5 25.5h-23l-12 41h477l-14 -41h-21q-45 0 -75 -37q-23 -27 -23 -61v-3l-2 -219v-237v-127q0 -84 -23.5 -143.5t-59.5 -99.5t-80 -58.5t-85 -18.5q-51 0 -90 10.5 t-67 45.5q-16 16 -17 43q0 25 17.5 41t42.5 16t42 -16.5t17 -40.5q0 -12 -8 -29q53 16 80 59q23 37 23 109q0 10 -1 22v138q-109 -80 -268 -80q-139 0 -262 61.5t-214 168t-144.5 248.5t-53.5 304z" />
<glyph unicode="H" horiz-adv-x="1320" d="M-2 0l12 41h21q47 0 78 37q23 27 22 61v1256q0 41 -29.5 69.5t-70.5 28.5h-21l-12 41h475l-12 -41h-21q-47 0 -78 -35q-23 -29 -22 -63v-590h637v590q0 41 -29.5 69.5t-70.5 28.5h-21l-12 41h475l-12 -41h-21q-47 0 -78 -35q-23 -29 -22 -63v-1268q4 -37 32.5 -61.5 t67.5 -24.5h21l12 -41h-4h-471l12 41h21q47 0 77 37q23 27 23 61v629h-637v-641q4 -37 32.5 -61.5t67.5 -24.5h21l12 -41h-4h-471z" />
<glyph unicode="I" horiz-adv-x="477" d="M0 0l14 41h21q45 0 76 37q23 27 22 61l2 1256q0 41 -29.5 69.5t-70.5 28.5h-21l-14 41h477l-12 -41h-21q-47 0 -77 -35q-23 -29 -23 -63v-1268q4 -37 31.5 -61.5t66.5 -24.5h23l12 -41h-4h-473z" />
<glyph unicode="J" horiz-adv-x="477" d="M-209 -158q0 25 17.5 42.5t41.5 17.5q25 0 42.5 -17.5t17.5 -42.5q0 -10 -8 -26q18 -18 57 -20h6l72 18q39 18 68.5 60t29.5 112l2 1411v2q0 41 -29.5 69.5t-70.5 28.5h-23l-12 41h477l-12 -41h-23q-45 0 -75 -37q-23 -27 -23 -61v-2v-1391q0 -84 -25.5 -145.5 t-67.5 -102.5t-94.5 -61.5t-105.5 -20.5q-76 0 -126 18.5t-80.5 45.5t-43 55.5t-12.5 46.5z" />
<glyph unicode="K" horiz-adv-x="1286" d="M-2 2l14 41h21q45 0 76 37q23 27 22 61l2 1256q0 41 -29.5 69.5t-70.5 28.5h-21l-14 41h477l-12 -41h-21q-47 0 -77 -35q-23 -29 -23 -63v-633l516 631q29 35 36 66.5t-34 31.5h-22l-13 41h357l-13 -41h-20q-63 0 -115 -29q-18 -10 -39.5 -25.5t-46.5 -43.5l-370 -459 l501 -797q18 -25 37 -42t35 -27q20 -12 49 -20.5t51 -8.5h21l12 -41h-479h-4l12 41h21q39 1 44 27q1 5 1 10q0 23 -17 51q-94 152 -176 281q-35 55 -69.5 111.5t-66.5 106.5t-57.5 90t-39.5 64l-111 -139v-514q4 -37 31.5 -61.5t66.5 -24.5h23l12 -41h-4h-473z" />
<glyph unicode="L" d="M2 0l12 39h21q47 0 78 37q23 27 22 63l2 1256q0 41 -29.5 69.5t-70.5 28.5h-23l-12 41h475l-12 -41h-21q-47 0 -77 -37q-23 -27 -23 -61v-1340h561q35 4 62 23q37 31 37 78v20l38 12v-133v-43v-12h-698h-27h-315z" />
<glyph unicode="M" horiz-adv-x="1560" d="M2 0l12 41h21q47 0 78 37q23 27 22 63v1254q0 41 -29.5 70.5t-70.5 29.5h-21l-12 39l354 2l439 -1135l424 1125l4 8h90h248l-13 -39h-22q-41 0 -70 -29.5t-31 -70.5l2 -1254q0 -37 23 -63q31 -37 78 -37h20l13 -41h-342v1276l-474 -1317l-518 1344v-1303h-225z" />
<glyph unicode="N" horiz-adv-x="1323" d="M0 0l14 41h21q41 0 70.5 28.5t29.5 69.5l-2 1256q0 35 -20 61q-31 37 -78 37h-21l-14 41h342l637 -1200v1198h342l-12 -39h-23q-41 0 -70.5 -29.5t-29.5 -70.5l2 -1256q0 -35 22 -61q31 -37 78 -37h21l12 -41h-342v154l-637 1200v-1213q0 -41 29.5 -69.5t70.5 -28.5h21 l14 -41h-477z" />
<glyph unicode="O" horiz-adv-x="1411" d="M29 764q0 162 53 304t144 248.5t214 168t262 61.5t262 -61.5t214.5 -168t144.5 -248.5t53 -304t-53 -305.5t-144.5 -250t-214 -167.5t-262.5 -61q-139 0 -262 61t-214 167.5t-144 250t-53 305.5zM242 766q0 -147 35.5 -275.5t99 -224.5t146.5 -151.5t179 -55.5 q94 0 178.5 55.5t148 151.5t99 224t35.5 276q0 147 -35.5 275t-99 224.5t-147.5 152t-179 55.5q-96 0 -179 -55.5t-146.5 -152t-99 -224.5t-35.5 -275z" />
<glyph unicode="P" horiz-adv-x="915" d="M2 2l14 39h21q47 0 78 37q20 31 20 63l2 1256q0 41 -29.5 69.5t-70.5 28.5h-21l-14 41h344l221 2q78 0 147.5 -30.5t122 -83t82 -122t29.5 -149.5t-29.5 -148.5t-82 -118.5t-122 -80t-147.5 -30h-221v-647q4 -37 32 -62.5t66 -25.5h23l12 -39h-4h-473zM346 819h135 q53 0 100.5 26.5t83 73t56 109t20.5 131.5q0 70 -20.5 131.5t-56 106.5t-82.5 70.5t-101 25.5h-135v-674z" />
<glyph unicode="Q" horiz-adv-x="1394" d="M25 770q0 162 53 304.5t144 249t214 167.5t262 61t262 -61t214.5 -167.5t144.5 -249t53 -304.5q0 -174 -60.5 -324.5t-164.5 -259.5q6 -23 8 -45t2 -45v-123q-1 -12 -1 -23q0 -73 24 -128q26 -64 77 -80q-6 12 -6 27q0 25 17.5 42t42.5 17t42 -17.5t17 -41.5 q0 -27 -18 -41q-29 -37 -68 -47.5t-88 -10.5q-41 0 -85 18.5t-81 58.5t-60.5 99.5t-23.5 143.5v53q-115 -55 -248 -55q-139 0 -262 61.5t-214 168t-144 248.5t-53 304zM238 772q0 -115 21.5 -217t62.5 -190q66 80 161 127t209 47q119 0 216.5 -49.5t160.5 -133.5 q43 88 66.5 193.5t23.5 222.5q0 147 -36 276.5t-99 225.5t-147 151.5t-179 55.5q-96 0 -180 -55.5t-146.5 -151.5t-98 -225.5t-35.5 -276.5zM430 197q57 -61 124.5 -96t143.5 -35q66 0 126.5 27.5t113.5 76.5q-8 57 -25.5 109.5t-46 92.5t-71.5 63.5t-103 23.5 q-53 0 -97 -21.5t-77 -58.5t-55.5 -84t-32.5 -98z" />
<glyph unicode="R" horiz-adv-x="1263" d="M0 0l12 41h21q47 0 78 37q23 27 22 61v1256q0 41 -28.5 69.5t-69.5 28.5h-23l-12 41h344l219 2q80 0 148.5 -30.5t121 -83t82 -122t29.5 -149.5q0 -66 -21.5 -124t-58.5 -106.5t-88 -82t-112 -50.5l409 -653q18 -27 37.5 -44t36.5 -28q18 -12 47 -20t51 -8h23l12 -41 h-481h-4l12 41h22q39 1 43 27q1 5 1 9q0 23 -17 52q-94 154 -176 285q-35 55 -70 112.5t-65.5 106.5t-55 88t-36.5 59h-111v-647q4 -37 32.5 -61.5t67.5 -24.5h21l12 -41h-2h-473zM342 817h135q55 0 102.5 27.5t83 74t56 109t20.5 131.5q0 70 -20.5 130.5t-56 105.5 t-83 70.5t-102.5 25.5h-133z" />
<glyph unicode="S" horiz-adv-x="899" d="M20 0v354l68 -16v-21q4 -47 18.5 -89t40.5 -74q41 -53 93.5 -74t111.5 -21q68 0 126.5 29t101.5 80t68.5 117.5t25.5 144.5q0 154 -78 246t-201 129q-61 18 -125.5 42.5t-119 66.5t-88 104.5t-33.5 157.5q0 78 29.5 146.5t80.5 119.5t120 80.5t147 29.5q76 0 144 -28.5 t122 -81.5q33 -25 58.5 -11.5t25.5 54.5v22l41 13v-357l-66 17v22q0 35 -15.5 76t-35.5 76q-33 57 -85 93t-112 36q-49 0 -92 -15.5t-75.5 -51.5t-51 -93t-18.5 -141q0 -78 63.5 -153t173.5 -107q106 -20 182 -67.5t124.5 -114t70 -146.5t21.5 -164q0 -92 -36 -174 t-97.5 -143.5t-143.5 -97t-176 -35.5q-76 0 -144.5 24.5t-125.5 67.5q-24 16 -46 16q-10 0 -20 -4q-31 -10 -31 -51v-21z" />
<glyph unicode="T" horiz-adv-x="1310" d="M-2 1346v133v43v12h1313v-12v-43v-133l-39 12v20q0 47 -37 78q-14 10 -29.5 16.5t-34.5 6.5h-12h-391v-1350q4 -37 31.5 -62.5t66.5 -25.5h23l12 -41h-479l12 41h23q39 0 66.5 25.5t31.5 62.5v1350h-405h-13q-16 0 -32.5 -6.5t-28.5 -16.5q-37 -31 -37 -78v-20z" />
<glyph unicode="U" horiz-adv-x="1282" d="M2 1534h475l-12 -39h-23q-41 0 -70.5 -29.5t-29.5 -70.5v-500v-420q0 -74 28.5 -139.5t78 -114.5t115 -76.5t138.5 -27.5q74 0 139.5 27.5t115 76.5t78 114.5t28.5 139.5v920q0 41 -29.5 70.5t-70.5 29.5h-21l-12 39h350l-12 -39h-21q-41 0 -70.5 -29.5t-29.5 -70.5v-910 q0 -104 -40 -196t-108.5 -161t-161 -108.5t-196.5 -39.5t-196.5 39.5t-161 108.5t-108.5 161t-40 196v910q0 41 -29.5 70.5t-70.5 29.5h-21z" />
<glyph unicode="V" horiz-adv-x="1419" d="M2 1530l356 2v-2l439 -1133l381 1012q6 25 -1.5 40t-21.5 24.5t-34.5 13.5t-39.5 4h-20l-14 39h370l-12 -39h-23q-84 0 -112 -88l-525 -1448l-546 1440q-23 55 -72 75.5t-90 20.5h-21z" />
<glyph unicode="W" horiz-adv-x="1732" d="M-2 1534l354 2v-2l320 2v-2l276 -715l226 594q6 25 -1.5 40t-21.5 24.5t-34.5 13.5t-39.5 4h-22l-13 39h371h318l-13 -39h-22q-82 0 -113 -88l-522 -1448l-164 430l-156 -430l-546 1440q-25 55 -73 75.5t-89 20.5h-23zM369 1493l422 -1092l51 134l-330 864 q-20 49 -61 69.5t-82 24.5zM1001 680l109 -279l383 1012q2 11 2 20q-1 29 -25 43q-32 16 -71 19h-21q-84 0 -114 -88z" />
<glyph unicode="X" horiz-adv-x="1271" d="M2 2l14 39h21q23 0 46 7t40 22q14 14 24.5 27.5t26.5 41.5q61 119 129 248q57 111 127 246t137 268l-291 494q-20 35 -31.5 50t-25.5 25q-27 25 -76 25h-20l-14 41h358l-14 -41h-21q-40 -1 -66 -27q-12 -13 -13 -30q0 -19 14 -43l243 -412q45 86 84 161t68 130 q35 66 61 121q8 20 8 37q0 20 -11 34q-21 28 -62 29h-23l-12 41h485l-12 -41h-20q-25 0 -44.5 -3t-35.5 -19q-12 -10 -25.5 -28t-30.5 -50l-315 -602l389 -652q18 -31 28.5 -47t20.5 -24q18 -18 36 -23.5t40 -5.5h21l12 -39h-352h-5l13 39h22q39 -1 68 23q16 13 16 32 q0 15 -10 33l-342 580l-303 -580q-7 -17 -7 -30q0 -21 16 -35q26 -24 65 -23h22l12 -39h-4h-481z" />
<glyph unicode="Y" horiz-adv-x="1116" d="M0 1536h356l-12 -41h-22q-41 0 -67 -27q-13 -12 -13 -30t14 -41l246 -539l229 539q8 20 8 36q0 20 -11 35q-21 27 -62 27h-23l-12 41h481l-14 -41h-21q-23 0 -42 -3t-36 -17q-12 -10 -29.5 -27.5t-33.5 -50.5l-283 -627v-647q4 -37 32 -61.5t67 -24.5h22l12 -41h-4h-471 l13 41h20q47 0 78 35q10 14 16 29.5t6 33.5v662l-278 600q-20 35 -31.5 49t-23.5 24q-31 25 -78 25h-21z" />
<glyph unicode="Z" horiz-adv-x="1208" d="M0 2l14 39h21q23 0 46 7t40 22q14 14 24.5 27.5t26.5 41.5l692 1340h-579h-13q-37 0 -63 -23q-37 -31 -37 -78v-20l-39 -12v133v43v14h1073l-12 -41h-20q-25 0 -43.5 -3t-34.5 -19q-14 -10 -26.5 -28t-29.5 -50l-696 -1332h711h12q35 0 63 23q37 31 37 78v20l39 13v-134 v-49v-12h-1206z" />
<glyph unicode="[" horiz-adv-x="382" d="M53 -131v1528l279 35v-35l-152 -51v-1426l152 -51v-35z" />
<glyph unicode="\" horiz-adv-x="567" d="M-18 1534h73l512 -1534h-73z" />
<glyph unicode="]" horiz-adv-x="368" d="M45 -129l152 51v1426l-152 51v35l279 -35v-1528l-279 -35v35z" />
<glyph unicode="^" horiz-adv-x="583" d="M59 776l168 219h131l158 -219h-90l-133 123l-146 -123h-88z" />
<glyph unicode="_" horiz-adv-x="1265" d="M70 -53h1130v-62h-1130v62z" />
<glyph unicode="`" horiz-adv-x="366" d="M-47 1108l158 55l178 -145l22 -45z" />
<glyph unicode="a" horiz-adv-x="802" d="M55 213q0 45 17.5 85t47.5 69.5t69.5 47t84.5 17.5h234v146v9q0 45 -18 73q-20 32 -48 48q-28 15 -62 14h-4q-36 -1 -65.5 -13.5t-50 -36t-20.5 -54.5q0 -37 -13.5 -57t-62.5 -20q-51 0 -63.5 25.5t-12.5 54.5q0 8 10.5 32.5t38 50t76.5 45t127 19.5q111 0 179.5 -21.5 t107.5 -55.5t52 -76t13 -80v-207q0 -82 2 -187q0 -37 23 -63q31 -37 78 -37h20l12 -41h-276l-39 57q-14 -14 -45 -25.5t-66.5 -19.5t-69.5 -12t-57 -4q-45 0 -84.5 17.5t-69.5 46t-47.5 68.5t-17.5 85zM240 225q0 -72 26.5 -126t65.5 -54q41 0 73.5 9t55.5 22q27 14 47 33 v299h-164q-18 0 -37.5 -15.5t-34 -40t-23.5 -57.5t-9 -70z" />
<glyph unicode="b" horiz-adv-x="974" d="M0 -2l12 39h21q47 0 78 37q23 27 22 63v1213q0 41 -29.5 69.5t-70.5 28.5h-21l-12 41l457 43l-13 -41h-20q-41 0 -70.5 -28.5t-29.5 -69.5v-2v2v-680q41 33 97 52t132 19q82 0 155.5 -31.5t128 -86t86 -128t31.5 -155.5q0 -84 -31.5 -157.5t-86 -128t-128 -86 t-155.5 -31.5q-66 0 -126 20t-110 57l-36 -59h-281zM324 383q0 -74 19 -139.5t52 -114.5t74 -76.5t84 -27.5t81 27.5t65.5 76.5t44 114.5t16.5 139.5t-16.5 138.5t-44 113.5t-65.5 76.5t-81 27.5q-47 0 -81 -15t-58.5 -41t-41 -57.5t-26.5 -64.5q-22 -77 -22 -170v-8z" />
<glyph unicode="c" horiz-adv-x="645" d="M-2 385q0 84 31.5 157.5t86 128t127 86t156.5 31.5q45 0 82 -2t64 -6q31 -4 55 -6v-178l-41 12q-29 72 -67.5 103.5t-92.5 31.5q-43 0 -80.5 -27.5t-66.5 -76.5t-45.5 -114.5t-16.5 -139.5t16.5 -138.5t45.5 -113.5t66.5 -76.5t80.5 -27.5q55 0 101.5 45t74.5 121h70 q-33 -98 -97.5 -154.5t-148.5 -56.5t-156.5 31.5t-127 86t-86 127t-31.5 156.5z" />
<glyph unicode="d" horiz-adv-x="966" d="M10 385q0 82 32 155.5t86 128t128 86t158 31.5q76 0 132 -19t97 -52v637q0 41 -29.5 69.5t-70.5 28.5h-23l-12 41l459 43l-13 -41h-22q-41 0 -69.5 -28.5t-28.5 -69.5v-1256q0 -35 22 -63q31 -37 78 -37h20l13 -39h-281l-37 59q-49 -37 -109.5 -57t-125.5 -20 q-84 0 -158 31.5t-128 86t-86 128t-32 157.5zM205 385q0 -74 16.5 -139.5t45 -114.5t66.5 -76.5t81 -27.5t84 27.5t73.5 76.5t52 114.5t19.5 139.5q0 98 -22 178q-10 33 -26.5 66t-41.5 58.5t-59.5 40.5t-79.5 15q-43 0 -81 -28.5t-66.5 -76.5t-45 -113.5t-16.5 -139.5z" />
<glyph unicode="e" horiz-adv-x="845" d="M20 389q0 82 32 155.5t86.5 128t127 86.5t156.5 32q82 0 155.5 -32t128 -86.5t86 -128t31.5 -155.5h-194h-357h-59q0 -74 23.5 -132t61.5 -99t83 -62.5t88 -21.5q88 0 166 53t110 164h66q-16 -66 -52 -121t-87 -96t-115.5 -63.5t-134.5 -22.5q-84 0 -156.5 31.5t-127 86 t-86.5 127t-32 156.5zM215 444l412 2q-6 63 -24.5 119t-46.5 95.5t-61.5 63.5t-72.5 24t-74 -24t-62.5 -63.5t-46 -96t-24.5 -120.5z" />
<glyph unicode="f" horiz-adv-x="460" d="M-2 0l12 41h23q41 0 69.5 28.5t30.5 69.5v654h-135v26h135l2 297v101q0 82 23.5 142t60.5 100t81 58.5t85 18.5q49 0 88 -10t68 -47q16 -16 16 -41t-16.5 -42.5t-40.5 -17.5q-25 0 -42.5 17.5t-17.5 42.5q0 14 6 26q-43 -12 -77.5 -48t-44.5 -95v-502h135v-26h-135 l-2 -654q0 -41 29.5 -69.5t70.5 -28.5h22l13 -41h-459z" />
<glyph unicode="g" horiz-adv-x="966" d="M18 387q0 82 31 153.5t85 125t126 84t154 30.5q74 0 139 -24.5t119 -69.5q35 41 82 63.5t92 22.5q49 0 86.5 -10t66.5 -45q16 -16 17 -41q0 -25 -17.5 -41.5t-42.5 -16.5t-41 16.5t-16 41.5q0 10 8 26q-53 -16 -79 -58q-22 -36 -22 -105q0 -11 1 -23v-86q2 -10 2 -20.5 v-22.5q0 -80 -29.5 -149.5t-80 -123t-119 -86t-146.5 -36.5l260 -117l-2 -4q2 0 2 -2v-45q-72 41 -166 41q-63 0 -118.5 -20.5t-96.5 -55.5t-64.5 -81t-23.5 -99t23.5 -99.5t64.5 -81t96.5 -54t118.5 -19.5q94 0 166 41v-41q-47 -23 -102 -36t-115 -13q-84 0 -157.5 23.5 t-129 65.5t-87 97t-31.5 119q0 63 31.5 118.5t87 97.5t129 66.5t157.5 24.5q4 0 8 -1t9 -1l-230 107q-109 45 -177.5 142t-68.5 222zM209 387q0 -72 15.5 -136.5t43 -112.5t64.5 -75.5t80 -27.5t79.5 27.5t64.5 75.5t44 112.5t16 136.5q0 74 -16 137.5t-44 110.5t-64.5 74.5 t-79.5 27.5t-80 -27.5t-64.5 -74.5t-43 -110.5t-15.5 -137.5z" />
<glyph unicode="h" horiz-adv-x="1093" d="M0 0l14 41h21q45 0 76 37q8 8 14 20q8 16 8 41l2 1213q0 41 -29.5 70.5t-70.5 29.5h-21l-14 39l459 43l-13 -41h-22q-41 0 -69.5 -28.5t-28.5 -69.5v-680q39 35 96 54t133 19q82 0 155.5 -31.5t128 -86t86 -128t31.5 -157.5l-2 -248q0 -41 30 -69.5t71 -28.5h20l15 -41 h-152h-174q-2 109 -2 192v195q0 74 -16.5 139.5t-44 114.5t-66.5 76.5t-82 27.5q-47 0 -81 -15t-58.5 -40.5t-40 -58.5t-25.5 -66q-22 -77 -22 -170v-8t-1 -45t-1 -88q-2 -55 -2 -123q4 -37 32.5 -62.5t67.5 -25.5h20l13 -41h-2h-170h-283z" />
<glyph unicode="i" horiz-adv-x="452" d="M-4 2l14 41h21q41 0 70.5 28.5t29.5 69.5l-2 445q0 33 -20 63q-31 37 -78 37h-21l-14 39l326 43v-627q0 -41 29.5 -69.5t70.5 -28.5h20l13 -41h-459zM113 1014q0 45 31.5 75.5t74.5 30.5q45 0 77 -30.5t32 -75.5t-32 -76t-77 -31q-43 0 -74.5 31t-31.5 76z" />
<glyph unicode="j" horiz-adv-x="335" d="M-201 -498q0 25 16.5 41.5t41.5 16.5t42 -16.5t17 -41.5q0 -16 -6 -28q18 -18 56 -20h6q35 0 72 18q40 18 69.5 60t29.5 112l-4 993q0 33 -20 63q-31 37 -78 37h-21l-14 39l326 43l4 -1155q0 -84 -23.5 -145.5t-61.5 -102.5t-88 -61.5t-102 -20.5q-76 0 -126 18.5 t-80.5 45.5t-43 55.5t-12.5 48.5zM123 1065q0 45 31.5 75.5t74.5 30.5q45 0 77 -30.5t32 -75.5t-32 -76t-77 -31q-43 0 -74.5 31t-31.5 76z" />
<glyph unicode="k" horiz-adv-x="921" d="M0 0l12 41h21q47 0 78 35q23 29 22 63l2 1213q0 41 -29.5 69.5t-70.5 28.5h-23l-12 41l459 43l-13 -41h-22q-41 0 -70.5 -28.5t-29.5 -69.5v-959l323 338h178l-12 -41h-22q-41 0 -95.5 -22.5t-99.5 -67.5l-45 -47l182 -430q18 -37 41 -64q20 -23 50 -42t67 -19l20 -2 l13 -39l-416 2l12 39h23q41 0 55 13.5t4 35.5l-166 387l-112 -119v-358h-324z" />
<glyph unicode="l" horiz-adv-x="454" d="M-2 -2l12 41h23q41 0 69.5 28.5t28.5 69.5v1213q0 35 -22 63q-31 35 -78 35h-21l-12 41l324 43v-1395q0 -41 29.5 -69.5t70.5 -28.5h20l15 -41h-459z" />
<glyph unicode="m" horiz-adv-x="1509" d="M0 2l12 41h21q47 0 78 37q10 10 12 20q10 20 10 41v471q0 41 -28.5 70t-69.5 29h-23l-12 41l326 30l-2 -57q41 35 80.5 54.5t115.5 19.5q94 0 151.5 -24.5t98.5 -69.5q41 43 95.5 65.5t129.5 22.5q106 0 179 -32t118 -86t64.5 -128t19.5 -156l-2 -250q0 -41 30 -69.5 t71 -28.5h20l12 -41h-149h-174q-2 109 -2 193v196q0 74 -3 139.5t-17.5 114.5t-44.5 77t-85 28q-59 0 -92 -35t-48 -83q-14 -48 -18 -98q-2 -32 -3 -56q0 -13 1 -23v-312q0 -41 30 -69.5t71 -28.5h20l15 -43h-265h-196l14 41h21q47 0 77 35q4 6 6.5 11t6.5 11q10 20 10 41 q-2 72 -2 127v129q0 74 -3 138.5t-18.5 112.5t-48 76t-92.5 30h-10q-36 0 -62 -14q-30 -16 -51.5 -40t-35 -57t-21.5 -65q-15 -65 -15 -146q0 -18 1 -37q0 -4 -1 -47t-1 -90v-127q4 -37 31.5 -62.5t66.5 -25.5h22l13 -41h-4h-170h-281z" />
<glyph unicode="n" d="M0 0l12 39h21q47 0 78 37q4 4 6 10t6 10q4 10 7 20.5t3 22.5v463q0 41 -29.5 70.5t-70.5 29.5h-21l-12 39l326 31l-2 -55q41 33 87 52t121 19q106 0 179 -31.5t118 -86t64.5 -128t19.5 -155.5l-4 -248q2 -41 31 -70.5t70 -29.5h22l12 -39h-323q-2 106 -2 190q0 37 -1 71 t-1 61.5v45v19.5q0 74 -7.5 138.5t-26.5 112.5t-56 76.5t-97 30.5q-43 0 -73.5 -14t-52 -38.5t-37 -57.5t-23.5 -66q-20 -71 -20 -159v-23q0 -4 -1 -46t-1 -89v-125q4 -37 31.5 -62.5t66.5 -25.5h22l13 -39h-455z" />
<glyph unicode="o" horiz-adv-x="849" d="M23 385q0 82 31.5 155.5t86 128t127 86t156.5 31.5t157.5 -31.5t128 -86t86 -128t31.5 -155.5q0 -84 -31.5 -156.5t-86 -127t-128 -86t-157.5 -31.5t-156.5 31.5t-127 86t-86 127t-31.5 156.5zM217 385q0 -74 16.5 -139.5t44 -114.5t65.5 -76.5t81 -27.5t81 27.5 t66.5 76.5t45 114.5t16.5 139.5t-16.5 139.5t-45 114.5t-66.5 76.5t-81 27.5t-81 -27.5t-65.5 -76.5t-44 -114.5t-16.5 -139.5z" />
<glyph unicode="p" horiz-adv-x="991" d="M10 -709l13 41h20q41 0 70.5 29t29.5 70v1157q0 35 -22 63q-31 35 -78 35h-20l-13 41l281 43l37 -59q49 35 109.5 55t125.5 20q82 0 156 -31.5t128 -86t86 -128t32 -155.5q0 -84 -32 -156.5t-86 -127t-128 -86t-156 -31.5q-76 0 -132 19.5t-97 51.5v-624q0 -41 29.5 -70 t70.5 -29h21l12 -41h-457zM334 385q0 -100 22 -180q10 -35 26.5 -67t41.5 -56.5t58.5 -39.5t80.5 -15q43 0 81 27.5t65.5 76.5t44 114.5t16.5 139.5t-16.5 139.5t-44 113.5t-65.5 76.5t-81 28.5t-84 -28.5t-73.5 -76.5t-52 -113.5t-19.5 -139.5z" />
<glyph unicode="q" horiz-adv-x="974" d="M16 391q0 84 32 158t86 128t127 86t157 32q68 0 127 -20.5t110 -57.5l37 61l281 -43l-12 -41h-21q-47 0 -78 -37q-23 -27 -22 -61l-2 -1053l2 -2v-90t4 -74.5t14 -50t33 -18.5q-8 16 -8 26q0 25 17 42.5t42 17.5t42 -17.5t17 -42.5t-16 -41q-29 -37 -59.5 -47t-79.5 -10 q-37 0 -71 12.5t-60.5 41t-43 78.5t-22.5 128v567q-41 -35 -97 -54t-134 -19q-84 0 -157 31.5t-127 86t-86 127t-32 156.5zM211 391q0 -74 16.5 -138.5t45 -113.5t66.5 -76.5t81 -27.5q45 0 80 15.5t59.5 40t40.5 56t27 66.5q22 75 22 170v8q0 74 -19.5 139.5t-52 114.5 t-73.5 77t-84 28t-81 -28t-66.5 -77t-45 -114.5t-16.5 -139.5z" />
<glyph unicode="r" horiz-adv-x="731" d="M-2 0l12 41h23q41 0 69.5 28.5t28.5 69.5v455q0 35 -22 61q-31 37 -78 37h-21l-12 41l324 43l-3 -178q27 53 64 94q33 35 82 64.5t119 29.5q51 0 89 -35.5t38 -88.5t-37 -90t-90 -37q-45 0 -84 39.5t-39 91.5q-20 -6 -45 -31t-45.5 -56.5t-34.5 -67.5t-14 -67v-305 q0 -41 29.5 -69.5t70.5 -28.5h20l15 -41h-459z" />
<glyph unicode="s" horiz-adv-x="581" d="M27 -2v55v123v55l41 -12v-22q0 -8 2 -17q4 -18 16 -39q31 -43 82 -82t125 -39q78 0 133 40t55 96q0 55 -49 95t-127 40h-31q-55 0 -101 19.5t-78 52t-50 76.5t-18 96q0 51 20.5 95t56 76.5t84 52t103.5 19.5q39 0 67.5 -1t52 -3t46 -5t49.5 -5v-178l-39 12v23q0 6 -4 18 t-11.5 27.5t-20.5 30t-32 24.5q-43 22 -97 22h-5q-76 0 -129 -37.5t-53 -93.5q0 -53 47 -90t121 -39h22q55 0 101.5 -19.5t80 -53t52 -79.5t18.5 -98q0 -53 -20.5 -98t-57.5 -78.5t-85 -53t-103 -19.5q-90 0 -160 51q-2 0 -2 1t-2 1q-28 23 -43 23q-16 0 -16 -27v-23z" />
<glyph unicode="t" horiz-adv-x="563" d="M4 727v25h137l-2 387v-2v2l191 51v-438h135v-25h-135v-522q12 -59 47 -95t76 -51q-6 12 -7 29q0 25 17.5 42t42.5 17t42 -17t17 -42q0 -29 -18 -43q-29 -35 -68 -45t-88 -10q-41 0 -85 18.5t-81 58t-60.5 99t-23.5 143.5v99v319h-137z" />
<glyph unicode="u" horiz-adv-x="1024" d="M2 774h324v-190v-72t1 -62.5t1 -45.5v-17q0 -74 4 -138.5t21.5 -112.5t51 -76.5t93.5 -30.5h10q38 0 64 13q30 15 51.5 39.5t36 56.5t22.5 67q15 65 15 146q0 18 -1 36v46t2 89q0 55 2 125q-4 37 -32.5 61.5t-67.5 24.5h-20l-15 41h457l-14 -41h-21q-49 0 -78 -35 q-4 -6 -12 -22t-8 -41l-2 -494q0 -41 29.5 -70.5t70.5 -29.5h21l14 -39l-328 -2l2 57q-39 -33 -81 -52t-117 -19q-109 0 -178.5 31.5t-111.5 86t-58.5 127t-16.5 156.5l2 248q0 41 -29.5 69.5t-70.5 28.5h-21z" />
<glyph unicode="v" horiz-adv-x="761" d="M2 774h260l182 -483l101 344q5 16 5 30q0 23 -12 41q-18 30 -59 29h-22l-13 39h320l-14 -39h-21q-23 0 -47.5 -8t-40.5 -22q-12 -10 -23.5 -23.5t-21.5 -46.5l-197 -686q-74 193 -131 346q-25 66 -48 128t-42.5 112.5t-32 82t-14.5 35.5q-18 39 -45 60.5t-51 21.5h-21z " />
<glyph unicode="w" horiz-adv-x="915" d="M-14 778h198h54h174h26h174h109h201l-13 -37h-20q-23 0 -47.5 -8t-38.5 -22q-12 -10 -23.5 -22.5t-21.5 -45.5l-189 -661q-16 43 -34 92q-16 41 -36 96t-42 115l-88 -303q-72 186 -127 333q-25 63 -47.5 124t-41 109t-29.5 78.5t-13 35.5q-18 37 -44 58t-51 21h-18z M256 727l156 -416l14 47q-23 57 -42 111.5t-34.5 95.5t-26 67.5t-12.5 29.5q-10 23 -24.5 39t-30.5 26zM453 741l47 -129l10 31q4 15 4 28q0 19 -10 37q-16 28 -51 33zM528 537l86 -226l95 332q4 16 4 29q-1 16 -7 32q-12 26 -42 35q-16 -4 -34 -11t-28 -17 q-14 -10 -23.5 -22.5t-19.5 -45.5z" />
<glyph unicode="x" horiz-adv-x="661" d="M2 2l12 39h23q20 0 38.5 15.5t33.5 33.5q16 23 28 49l127 307q-39 66 -69.5 119t-40.5 72q-29 47 -50.5 72.5t-62.5 25.5h-23l-12 41h348l-12 -41h-23q-20 0 -43.5 -4t-41 -15t-23.5 -30.5t8 -48.5q10 -14 21 -35q10 -16 22 -38.5t29 -49.5l51 121l68 141h256l-13 -41 h-20q-47 0 -78 -37q-4 -4 -19.5 -39.5t-37 -89t-47 -118t-50.5 -123.5q27 -47 53.5 -91t47 -78t34 -56.5t15.5 -24.5q31 -37 76 -37h22l13 -39h-146l-78 139q-8 14 -18 33q-10 16 -21.5 36.5t-25.5 45.5q-16 -41 -29.5 -72.5t-17.5 -42.5q-10 -23 -3 -41t23 -31.5t38 -20.5 t42 -7h23l12 -39h-459z" />
<glyph unicode="y" horiz-adv-x="755" d="M-199 -403q0 43 31 74.5t76 31.5t75.5 -31.5t30.5 -74.5q0 -8 -4 -25q-2 -8 -2 -14q4 -16 38 -30q25 -11 57 -11q10 0 22 1q45 5 91 38.5t73 115.5l80 271q-16 43 -41 111.5t-50.5 146.5t-51 155.5t-47 141t-35 104.5t-15.5 45q-20 39 -47 60.5t-49 21.5h-21l-14 41h262 l180 -557l101 416q5 16 5 30q0 23 -12 41q-18 29 -59 29h-22l-13 41h320l-15 -41h-20q-23 0 -47.5 -7t-40.5 -24q-12 -10 -23.5 -23t-21.5 -46l-254 -967q-18 -68 -55 -121q-31 -47 -83.5 -84t-131.5 -37q-121 0 -194 49.5t-73 127.5z" />
<glyph unicode="z" horiz-adv-x="679" d="M-2 2l12 41h23q20 0 38.5 15.5t32.5 33.5q16 23 29 49l238 574h-201q-37 0 -64 -23q-37 -31 -36 -78v-20l-39 -12v194h631l-13 -39h-20q-47 0 -78 -37q-4 -4 -19.5 -40.5t-39 -94t-51 -127t-55.5 -139.5t-52.5 -132.5t-40.5 -103.5h252q35 0 63 23q35 31 35 78v20l41 13 v-195h-686z" />
<glyph unicode="{" horiz-adv-x="466" d="M35 694q4 0 8 1t8 1q-4 0 -8 1t-8 1h22q59 10 101.5 97.5t42.5 287.5q0 80 7 154t31.5 133.5t72.5 103.5t132 66l7 -51q-80 -23 -117 -127.5t-37 -265.5q0 -78 -2 -148.5t-13.5 -124t-34 -87.5t-61.5 -40q39 -6 61.5 -39.5t34 -87t13.5 -124t2 -148.5q0 -162 37 -266.5 t117 -126.5l-7 -51q-84 20 -132 65t-72.5 104.5t-31.5 133t-7 153.5q0 201 -42 288t-102 97h-22z" />
<glyph unicode="|" horiz-adv-x="258" d="M106 -500v2186h46v-2186h-46z" />
<glyph unicode="}" horiz-adv-x="475" d="M25 -102q80 23 116.5 127t36.5 266q0 78 2 148.5t13.5 123.5t33 87t62.5 40q-41 6 -62.5 40t-33 87t-13.5 124t-2 149q0 162 -37 266t-116 127l6 51q82 -23 131 -67t73.5 -103t31.5 -133t7 -154q0 -201 41 -288t101 -97h24q-4 0 -8 -1t-8 -1q4 0 8 -1t8 -1h-24 q-59 -10 -100.5 -97t-41.5 -288q0 -80 -7 -153.5t-31.5 -133t-73.5 -104.5t-131 -66z" />
<glyph unicode="~" horiz-adv-x="940" d="M92 774q35 23 72 41q33 16 70.5 29.5t78.5 13.5h2h7q59 0 111 -17.5t97 -37t84 -35.5t70 -16q33 0 63.5 9t53.5 19q27 12 51 29l22 -57q-35 -25 -71 -43q-33 -16 -73 -28.5t-79 -12.5h-2h-4q-59 0 -111.5 17t-97.5 36.5t-84 36t-71 16.5q-33 0 -64 -9t-53 -20 q-27 -12 -51 -28z" />
<glyph unicode="&#xa1;" horiz-adv-x="290" d="M29 28l84 774h61l82 -774q6 -41 -2 -76q-6 -29 -23.5 -52.5t-56.5 -23.5h-61q-39 0 -57.5 24t-24.5 52q-8 35 -2 76zM60 1245q0 35 24.5 58t59.5 23t58.5 -23.5t23.5 -57.5q0 -35 -23.5 -58.5t-58.5 -23.5t-59.5 23.5t-24.5 58.5z" />
<glyph unicode="&#xa2;" horiz-adv-x="645" d="M2 387q0 80 28.5 149.5t78 123t117 87t145.5 39.5v99h61v-97q39 -2 71 -3t54 -5q27 -4 49 -6v-176l-41 12q-25 63 -57.5 94t-75.5 39v-710q47 10 86 54t62 110h71q-31 -92 -88 -146.5t-131 -64.5v-115h-61v115q-78 6 -145.5 39.5t-117 88t-78 124t-28.5 149.5zM197 387 q0 -68 13 -127t36.5 -106.5t55.5 -78t69 -40.5v704q-37 -10 -69 -40.5t-55.5 -78t-36.5 -106.5t-13 -127z" />
<glyph unicode="&#xa3;" d="M-2 0l14 41h21q47 0 78 37q10 12 16 28.5t6 32.5v805q0 39 1 98.5t13.5 125t41 131t84 117.5t141.5 85t215 33q80 0 139 -22.5t102 -60.5t71 -85t44 -96q37 -117 35 -264l-53 34q-6 106 -41 189q-14 35 -37 68.5t-54.5 60t-74.5 43t-101 16.5q-115 0 -179 -51t-95 -125 t-38 -155.5t-7 -141.5v-133h483v-61h-483v-101h483v-61h-483v-531h561q35 0 62 23q37 31 36 78v20l41 12v-133v-45v-12h-700h-25h-315h-2z" />
<glyph unicode="&#xa4;" horiz-adv-x="1136" d="M102 987l125 127l123 -123q98 59 211 59.5t211 -59.5l119 119l127 -125l-121 -121q61 -96 61 -209.5t-61 -210.5l123 -122l-127 -125l-121 120q-98 -59 -210.5 -59t-211.5 59l-119 -118l-127 125l121 120q-61 96 -61 210t61 212zM254 654.5q0 -58.5 22.5 -115 t67.5 -101.5t101.5 -67.5t114.5 -22.5t114.5 22.5t101.5 67.5t67.5 101.5t22.5 115t-22.5 114.5t-67.5 101t-101.5 66.5t-114.5 21.5t-114.5 -21.5t-101.5 -66.5t-67.5 -101t-22.5 -114.5z" />
<glyph unicode="&#xa5;" horiz-adv-x="1116" d="M4 1540h356l-12 -41h-22q-41 0 -67 -26.5t1 -71.5l246 -539l229 539q18 43 -4 70.5t-63 27.5h-21l-12 41h479l-12 -41h-21q-23 0 -42 -3t-35 -17q-12 -10 -30 -27.5t-34 -50.5l-268 -594h168v-62h-183v-104h183v-61h-183v-453q4 -37 32 -61.5t67 -24.5h22l13 -41h-5h-473 l15 41h20q45 0 76 35q23 29 22 63l3 441h-191v61h191v104h-191v62h186l-274 594q-20 35 -31.5 49t-23.5 25q-16 16 -36 20t-42 4h-21z" />
<glyph unicode="&#xa6;" horiz-adv-x="212" d="M76 510h45v-1073h-45v1073zM76 625v1073h45v-1073h-45z" />
<glyph unicode="&#xa7;" horiz-adv-x="540" d="M2 12v58v120v56l41 -13v-20q0 -8 2 -16t4 -17.5t10 -21.5q33 -45 84.5 -83t122.5 -38q78 0 134.5 39t56.5 94q0 57 -49.5 96t-126.5 39h-31q-55 0 -101.5 19.5t-78 52.5t-50 78t-18.5 94q0 59 28.5 110.5t75.5 85.5q-49 33 -76.5 85.5t-27.5 117.5q0 49 20.5 94t56.5 78 t84 52.5t103 19.5q39 0 67.5 -1t52.5 -4t46.5 -6t48.5 -5v-177l-41 13v20q0 6 -3 19.5t-11 29t-20.5 29.5t-30.5 25q-45 23 -103 22q-76 0 -129 -39t-53 -92t47 -90t121 -39h23q55 0 101 -19.5t80 -54.5t52 -81t18 -97q0 -59 -26.5 -109t-73.5 -85q47 -35 73.5 -87.5 t26.5 -115.5q0 -51 -20 -97.5t-57 -80t-85 -53t-104 -19.5q-45 0 -85 14.5t-75 36.5l-4 4q-59 43 -59 -6v-20zM90 629q0 -53 47 -90t121 -41h23q66 0 116 -27q59 39 60 98q0 55 -49.5 95.5t-126.5 40.5h-31q-58 0 -103 18q-57 -35 -57 -94z" />
<glyph unicode="&#xa8;" horiz-adv-x="681" d="M106 1069q0 35 24 59.5t58 24.5q35 0 59.5 -24.5t24.5 -59.5t-24.5 -58.5t-59.5 -23.5t-58.5 23.5t-23.5 58.5zM410 1069q0 35 23.5 59.5t58.5 24.5t59 -24.5t24 -59.5t-24 -58.5t-59 -23.5t-58.5 23.5t-23.5 58.5z" />
<glyph unicode="&#xa9;" horiz-adv-x="1062" d="M31 784q0 102 39 192.5t105.5 158t156.5 106.5t192 39t192.5 -39t158 -106.5t106.5 -157.5t39 -193q0 -102 -39 -192t-106.5 -156.5t-157.5 -105.5t-193 -39q-102 0 -192 39t-156.5 105.5t-105.5 156.5t-39 192zM104 784q0 -86 33 -162.5t90.5 -133t134 -89t162.5 -32.5 t163 32.5t134.5 89t90 133t32.5 162.5t-32.5 163t-90 134.5t-134.5 90t-163 32.5t-162.5 -32.5t-134 -90t-90.5 -134.5t-33 -163zM248 797q0 63 23.5 117.5t64.5 95.5t96 64.5t117 23.5q33 0 60.5 -2t47.5 -4q23 -2 41 -5v-133l-28 11q-23 53 -51.5 76.5t-69.5 23.5 q-33 0 -60.5 -20.5t-49 -57.5t-34 -86t-12.5 -104t12.5 -103.5t34 -85.5t49 -57.5t60.5 -20.5q41 0 75.5 34t55.5 91h53q-25 -76 -73 -117.5t-111 -41.5q-61 0 -116.5 23.5t-96.5 64.5t-64.5 96t-23.5 117z" />
<glyph unicode="&#xaa;" horiz-adv-x="507" d="M36 837q0 30 12 57t32 47t47 32t57 12h159v98q1 35 -12 56t-33 31.5t-44.5 10t-44.5 -9t-34 -24.5t-14 -37q0 -25 -9 -38.5t-42 -13.5q-35 0 -43 17.5t-8 36.5q0 6 7 22.5t25.5 33.5t51.5 30.5t86 13.5q75 0 121.5 -14.5t72.5 -37.5t35 -51.5t9 -54.5v-139q0 -56 1 -127 q0 -25 16 -42q21 -25 53 -25h13l8 -28h-186l-27 38q-9 -9 -30 -16.5t-45 -13t-47 -8.5t-39 -3q-30 0 -57 12t-47 31t-32 46t-12 58zM161 845q0 -49 18 -85.5t45 -36.5t49 6.5t38 14.5q18 10 32 23v202h-111q-12 0 -25.5 -10.5t-23 -27t-16 -39t-6.5 -47.5z" />
<glyph unicode="&#xab;" horiz-adv-x="878" d="M37 786l512 514h88l-512 -514l512 -512h-88zM240 786l512 514h88l-512 -514l512 -512h-88z" />
<glyph unicode="&#xac;" horiz-adv-x="962" d="M45 776v62h805h61v-62v-330h-61v330h-805z" />
<glyph unicode="&#xad;" horiz-adv-x="964" d="M184 614v62h582v-62h-582z" />
<glyph unicode="&#xae;" horiz-adv-x="1071" d="M41 786q0 102 39 192.5t105.5 158t157 106.5t192.5 39t192 -39t157.5 -106.5t106.5 -157.5t39 -193q0 -102 -39 -192t-106.5 -156.5t-157.5 -105.5t-192 -39t-192.5 39t-157 105.5t-105.5 156.5t-39 192zM117 786q0 -86 32.5 -162.5t89 -133t133.5 -89t163 -32.5 q78 0 146.5 25.5t121.5 70.5h-160h-2l6 18h10q16 0 18.5 11.5t-5.5 25.5q-41 68 -78 125q-31 49 -60.5 95t-39.5 65h-48v-281q4 -39 43 -39h11l6 -18h-2h-207l6 18h8q23 0 35 17q10 10 10 26v547q0 18 -13 30.5t-30 12.5h-10l-4 15q-82 -57 -131 -147.5t-49 -199.5z M303 1137h141h97q70 0 118 -49.5t48 -118.5q0 -57 -34 -100.5t-87 -57.5l178 -285q8 -10 16 -18t15 -12q14 -7 30 -11q59 57 94 134t35 167q0 86 -32.5 163t-90 134.5t-134 90t-162.5 32.5q-66 0 -124.5 -18.5t-107.5 -50.5zM444 823h60q47 0 80.5 44t33.5 106 q0 61 -33.5 103t-80.5 42h-60v-295z" />
<glyph unicode="&#xaf;" horiz-adv-x="735" d="M70 1231v61h581v-61h-581z" />
<glyph unicode="&#xb0;" horiz-adv-x="559" d="M74 1071q0 43 16 82t46 67.5t69 45t82 16.5t82 -16.5t68.5 -45t46 -67.5t16.5 -82t-16.5 -82t-46 -68.5t-68.5 -46t-82 -16.5t-82 16.5t-69 46t-46 68.5t-16 82zM123 1071q0 -68 48 -116t116 -48t116 48.5t48 115.5q0 68 -48 116t-116 48t-116 -48t-48 -116z" />
<glyph unicode="&#xb1;" horiz-adv-x="704" d="M53 0h604v59h-604v-59zM61 389v62h582v-62h-582zM322 129v582h61v-582h-61z" />
<glyph unicode="&#xb2;" horiz-adv-x="374" d="M31 736q0 27 10 50t27.5 41t41.5 28t51 10t50.5 -10t41 -28t28 -41t10.5 -50q0 -14 -3.5 -27t-8 -24t-9 -17.5t-4.5 -8.5l-153 -243h140q11 1 20 7q13 11 13 27v7l13 4v-45v-71h-262l172 270q15 24 24 42.5t13 35t2.5 32.5t-7.5 32q-10 26 -36.5 43t-57.5 17 q-20 0 -37.5 -7t-31.5 -19t-22.5 -28.5t-11.5 -35.5z" />
<glyph unicode="&#xb3;" horiz-adv-x="421" d="M24 482q0 7 1 15l7 12q4 -24 15 -44t28 -34.5t39 -23t46 -8.5q27 0 50.5 10t40.5 27.5t27.5 41t10.5 49.5q0 27 -10.5 50.5t-27.5 41t-40.5 27.5t-50.5 10q-19 0 -37 -5l111 180h-135h-4q-12 0 -21 -8q-13 -10 -13 -25v-7l-12 -4v44v14v4h261v0h43l-4 -14h-7q-8 0 -17 -4 t-15 -8q-5 -4 -8.5 -7.5l-6.5 -6.5q-3 -4 -6 -6l-81 -140q30 -4 56 -18.5t45.5 -36t30.5 -49.5t11 -59q0 -34 -13 -64t-35.5 -52.5t-52.5 -35.5t-64 -13q-29 0 -54.5 9.5t-46.5 25.5t-36 38.5t-22 48.5l-2 12t-1 13z" />
<glyph unicode="&#xb4;" horiz-adv-x="428" d="M117 971l20 47l180 143l156 -55z" />
<glyph unicode="&#xb5;" horiz-adv-x="1058" d="M-76 -745q0 25 17.5 42t42.5 17t42 -17.5t17 -41.5q0 -14 -6 -27q41 12 71.5 48t43.5 95l2 1262q0 41 -30 69.5t-71 28.5h-20l-13 41h324v-190v-72t1 -62.5t1 -45.5v-17q0 -74 4 -138.5t21.5 -112.5t51.5 -76.5t93 -30.5q43 -2 74 13t52.5 39.5t35.5 56.5t22 67 q18 80 15 182v46t2 89q0 55 2 125q-4 37 -33 61.5t-68 24.5h-20l-12 41h454l-14 -41h-20q-45 0 -76 -35q-10 -12 -15 -22q-8 -16 -8 -41l-2 -494q0 -41 30 -70.5t71 -29.5h20l14 -39l-325 -2v57q-39 -35 -81 -53t-118 -18q-100 0 -168 26v-434v-100q0 -84 -23.5 -143.5 t-60.5 -99.5t-81 -58.5t-85 -18.5q-49 0 -88 10.5t-67 47.5q-18 14 -19 41z" />
<glyph unicode="&#xb6;" horiz-adv-x="841" d="M37 920q0 68 25.5 127t68.5 103t101.5 70.5t125.5 28.5h54h198h56h110v-55h-110v-1344h-56v1344h-198v-1344h-54v740q-68 2 -126 28.5t-101 70.5t-68.5 103.5t-25.5 127.5z" />
<glyph unicode="&#xb7;" horiz-adv-x="278" d="M55 772q0 35 24.5 58.5t59.5 23.5t58.5 -23.5t23.5 -58.5t-23.5 -59.5t-58.5 -24.5t-59.5 24.5t-24.5 59.5z" />
<glyph unicode="&#xb8;" horiz-adv-x="518" d="M27 -395l69 49q72 -14 129 -14q49 0 90 15t41 62t-31.5 67.5t-70.5 29.5q-45 8 -100 4l36 180h58v-139q61 -10 110 -29q41 -16 76 -43t35 -70t-22.5 -74.5t-56.5 -52t-74 -31t-76 -10.5q-37 0 -75 8.5t-69 18.5q-37 12 -69 29z" />
<glyph unicode="&#xb9;" horiz-adv-x="206" d="M7 345l4 14h7q16 0 26 13q8 9 8 20v373q0 14 -10 23.5t-24 9.5h-7l-4 14l115 58v-481q1 -13 10.5 -21.5t23.5 -8.5h7l4 -14h-2h-158z" />
<glyph unicode="&#xba;" horiz-adv-x="616" d="M38 918q0 54 20.5 102t56.5 83.5t83 56t102 20.5t103 -20.5t84 -56t56.5 -83.5t20.5 -102t-20.5 -101.5t-56.5 -83t-84 -56t-103 -20.5t-102 20.5t-83 56t-56.5 83t-20.5 101.5zM165 918q0 -48 10.5 -90.5t28.5 -74.5t43 -50t53 -18t53 18t43.5 50t29.5 74.5t11 90.5 q0 49 -11 91.5t-29.5 74.5t-43.5 50t-53 18t-53 -18t-43 -50t-28.5 -74.5t-10.5 -91.5z" />
<glyph unicode="&#xbb;" horiz-adv-x="868" d="M35 270l512 512l-512 514h90l510 -514l-510 -512h-90zM238 270l512 512l-512 514h90l510 -514l-510 -512h-90z" />
<glyph unicode="&#xbc;" horiz-adv-x="948" d="M29 386l6 21h11q24 0 40 19q12 14 11 31v567q0 21 -15 35.5t-36 14.5h-11l-6 21l175 87v-730q2 -19 17 -32t35 -13h10l7 -21h-2h-242zM117 0l512 1534h71l-512 -1534h-71zM191 224l389 560h70v-516h69l-1 -44h-68v-159q2 -19 16.5 -32t34.5 -13h10l8 -20h-2h-242l6 20h10 q24 0 40 19q12 14 12 32v153h-352zM251 268h292v422z" />
<glyph unicode="&#xbd;" horiz-adv-x="903" d="M14 386l6 21h11q24 0 40 19q12 14 12 32v571q0 21 -15.5 35.5t-36.5 14.5h-11l-6 22l177 88v-736q2 -19 16.5 -32.5t35.5 -13.5h10l7 -21h-2h-244zM97 0l512 1534h71l-512 -1534h-71zM242 584q0 41 14.5 76t41 61t62 41.5t76.5 15.5q40 0 75 -15.5t61 -41.5t42 -61 t16 -76q0 -20 -5.5 -40t-12 -35.5t-13 -26t-7.5 -12.5l-229 -364h211q16 1 29 11q19 16 19 40v10l21 6v-67v-106h-393l258 404q22 35 35.5 63.5t19.5 53t4 48t-12 48.5q-15 39 -54.5 64t-86.5 25q-30 0 -56 -10.5t-46.5 -28.5t-34 -42.5t-17.5 -53.5z" />
<glyph unicode="&#xbe;" horiz-adv-x="1083" d="M47.5 604q-0.5 11 1.5 22l11 19q5 -36 22.5 -67t43.5 -53.5t59.5 -35.5t71.5 -13q40 0 76.5 16t63 42.5t42 62.5t15.5 76q0 41 -15.5 77.5t-42 63.5t-63 42.5t-76.5 15.5q-30 0 -58 -8l172 278h-208h-6q-19 0 -33 -12q-19 -15 -19 -39v-11l-20 -6v68v22v6h403v-1h65 l-6 -21h-10q-13 0 -27 -6t-22 -13q-9 -6 -14.5 -11t-9.5 -11q-4 -5 -9 -9l-125 -215q46 -6 86 -28t70 -56t46.5 -76.5t16.5 -90.5q0 -52 -19.5 -98.5t-54 -81.5t-80.5 -54.5t-99 -19.5q-44 0 -83.5 14t-71.5 39t-55.5 59.5t-33.5 75.5q-2 8 -3 19q-1 8 -1.5 19zM266 221 l383 553h69v-510h68l-1 -43h-67v-157q2 -19 16 -31.5t34 -12.5h10l8 -20h-2h-239l6 20h10q24 0 40 18q11 14 11 32v151h-346zM312 0l512 1534h71l-512 -1534h-71zM325 264h287v417z" />
<glyph unicode="&#xbf;" horiz-adv-x="714" d="M-6 346q0 94 32.5 177t90 148.5t136.5 109.5t169 57l22 155h80l17 -178q-4 0 -15.5 -1t-21.5 -3q-70 -10 -129.5 -44t-102.5 -85t-67.5 -115.5t-24.5 -138.5q0 -80 31 -150.5t83 -123t122.5 -83t150.5 -30.5q59 0 105 14l61 -141q-111 -63 -244 -64q-102 0 -192 39 t-157.5 106.5t-106.5 158t-39 192.5zM403 1354q0 35 24 59.5t58 24.5q35 0 59.5 -25t24.5 -59q0 -35 -24.5 -58.5t-59.5 -23.5t-58.5 23.5t-23.5 58.5z" />
<glyph unicode="&#xc0;" horiz-adv-x="1312" d="M0 0l14 41h21q49 0 82 29q14 12 23.5 26.5t19.5 42.5l364 1256q10 41 -8 70.5t-59 29.5h-21l-12 39h131h344h4l-12 -39h-4h-17q-41 0 -59 -29.5t-8 -70.5l364 -1256q10 -29 19.5 -43t23.5 -26q33 -29 82 -29h21l14 -41h-346h-4l14 41h21q39 0 61.5 26.5t11.5 61.5 l-139 485h-430l-139 -485q-10 -35 12.5 -61.5t61.5 -26.5h22l12 -41h-4h-481zM477 1763l158 55l178 -145l22 -45zM528 653h408l-205 711z" />
<glyph unicode="&#xc1;" horiz-adv-x="1312" d="M0 0l14 41h21q49 0 82 29q14 12 23.5 26.5t19.5 42.5l364 1256q10 41 -8 70.5t-59 29.5h-21l-12 39h131h344h4l-12 -39h-4h-17q-41 0 -59 -29.5t-8 -70.5l364 -1256q10 -29 19.5 -43t23.5 -26q33 -29 82 -29h21l14 -41h-346h-4l14 41h21q39 0 61.5 26.5t11.5 61.5 l-139 485h-430l-139 -485q-10 -35 12.5 -61.5t61.5 -26.5h22l12 -41h-4h-481zM477 1626l20 47l180 143l156 -55zM528 653h408l-205 711z" />
<glyph unicode="&#xc2;" horiz-adv-x="1312" d="M0 0l14 41h21q49 0 82 29q14 12 23.5 26.5t19.5 42.5l364 1256q10 41 -8 70.5t-59 29.5h-21l-12 39h131h344h4l-12 -39h-4h-17q-41 0 -59 -29.5t-8 -70.5l364 -1256q10 -29 19.5 -43t23.5 -26q33 -29 82 -29h21l14 -41h-346h-4l14 41h21q39 0 61.5 26.5t11.5 61.5 l-139 485h-430l-139 -485q-10 -35 12.5 -61.5t61.5 -26.5h22l12 -41h-4h-481zM428 1646l168 219h131l157 -219h-90l-133 123l-145 -123h-88zM528 653h408l-205 711z" />
<glyph unicode="&#xc3;" horiz-adv-x="1312" d="M0 0l14 41h21q49 0 82 29q14 12 23.5 26.5t19.5 42.5l364 1256q10 41 -8 70.5t-59 29.5h-21l-12 39h131h344h4l-12 -39h-4h-17q-41 0 -59 -29.5t-8 -70.5l364 -1256q10 -29 19.5 -43t23.5 -26q33 -29 82 -29h21l14 -41h-346h-4l14 41h21q39 0 61.5 26.5t11.5 61.5 l-139 485h-430l-139 -485q-10 -35 12.5 -61.5t61.5 -26.5h22l12 -41h-4h-481zM374 1767q25 23 52 41q23 16 51.5 29.5t56.5 13.5h6q43 0 80 -17.5t70 -37t60.5 -35.5t49.5 -16q23 0 45.5 9t38.5 19q20 12 37 29l17 -57q-27 -25 -54 -43q-23 -16 -51 -28.5t-57 -12.5h-4 q-43 0 -80 17t-69.5 36.5t-61.5 36t-51 16.5q-23 0 -45.5 -9t-38.5 -20q-20 -12 -37 -28zM528 653h408l-205 711z" />
<glyph unicode="&#xc4;" horiz-adv-x="1312" d="M0 0l14 41h21q49 0 82 29q14 12 23.5 26.5t19.5 42.5l364 1256q10 41 -8 70.5t-59 29.5h-21l-12 39h131h344h4l-12 -39h-4h-17q-41 0 -59 -29.5t-8 -70.5l364 -1256q10 -29 19.5 -43t23.5 -26q33 -29 82 -29h21l14 -41h-346h-4l14 41h21q39 0 61.5 26.5t11.5 61.5 l-139 485h-430l-139 -485q-10 -35 12.5 -61.5t61.5 -26.5h22l12 -41h-4h-481zM421 1724q0 35 24 59.5t58 24.5q35 0 59.5 -24.5t24.5 -59.5t-24.5 -58.5t-59.5 -23.5t-58.5 23.5t-23.5 58.5zM528 653h408l-205 711zM725 1724q0 35 23.5 59.5t58.5 24.5t59 -24.5t24 -59.5 t-24 -58.5t-59 -23.5t-58.5 23.5t-23.5 58.5z" />
<glyph unicode="&#xc5;" horiz-adv-x="1312" d="M0 0l14 41h21q49 0 82 29q14 12 23.5 26.5t19.5 42.5l364 1256q10 41 -8 70.5t-59 29.5h-21l-12 39h131h344h4l-12 -39h-4h-17q-41 0 -59 -29.5t-8 -70.5l364 -1256q10 -29 19.5 -43t23.5 -26q33 -29 82 -29h21l14 -41h-346h-4l14 41h21q39 0 61.5 26.5t11.5 61.5 l-139 485h-430l-139 -485q-10 -35 12.5 -61.5t61.5 -26.5h22l12 -41h-4h-481zM506 1724q0 61 44 104.5t105 43.5t105.5 -43.5t44.5 -104.5t-44.5 -105t-105.5 -44t-105 44t-44 105zM528 653h408l-205 711zM541 1724q0 -47 33.5 -81t80.5 -34t81 34t34 81t-34 81t-81 34 t-80.5 -34t-33.5 -81z" />
<glyph unicode="&#xc6;" horiz-adv-x="1826" d="M0 2l14 41h21q23 0 44 6t38 23q14 12 23.5 25.5t19.5 43.5l528 1256q10 39 -8 68.5t-59 29.5h-21l-12 41h131h166h59h6h762v-12v-45v-133l-41 12v20q0 49 -35 78q-29 23 -63 23h-12h-607l109 -668h399q37 0 64 23q37 31 37 77v21l39 12v-123v-55v-123l-39 12v21 q0 47 -37 78q-27 23 -64 22h-395l117 -717h508q35 0 61 23q37 27 37 76v20l39 15v-134v-45v-12h-635h-23h-190h-4l14 41h21q39 0 61.5 25.5t11.5 60.5l-102 645h-332l-274 -645q-10 -35 12.5 -60.5t61.5 -25.5h22l12 -41h-4h-481zM670 811h311l-84 492z" />
<glyph unicode="&#xc7;" horiz-adv-x="1140" d="M-4 764q0 162 53 304t144.5 248.5t214 168t262.5 61.5q74 2 143 -14q59 -16 123.5 -52t112.5 -114q10 -18 19 -19t17.5 9t12.5 29.5t6 39.5v21l39 12v-395l-92 16q0 92 -30 167t-80 128t-119.5 83t-151.5 30q-96 0 -180 -57.5t-146.5 -155.5t-98.5 -229.5t-36 -278.5 t36 -278.5t98.5 -229.5t146 -155.5t180.5 -57.5q86 0 155.5 37t119.5 96.5t78 134t28 150.5l86 16q0 -92 -29 -182t-87 -159.5t-145.5 -112.5t-205.5 -43q-139 0 -262 61t-214.5 167.5t-144.5 249t-53 304.5zM349 -395l69 49q72 -14 129 -14q49 0 90 15t41 62t-31.5 67.5 t-70.5 29.5q-45 8 -100 4l36 180h58v-139q61 -10 110 -29q41 -16 76 -43t35 -70t-22.5 -74.5t-56.5 -52t-74 -31t-76 -10.5q-37 0 -75 8.5t-69 18.5q-37 12 -69 29z" />
<glyph unicode="&#xc8;" d="M2 0l12 39h21q47 0 78 37q23 27 22 63v1254v2q0 41 -28.5 69.5t-69.5 28.5h-23l-12 41h277h65h660v-12v-45v-134l-41 13v20q0 47 -37 78q-27 23 -62 23h-12h-508v-670l307 2q35 0 64 22q35 29 35 78v21l41 12v-125v-53v-123l-41 12v21q0 49 -35 78q-29 23 -64 22h-307 v-719h561q33 2 62 23q35 31 34 78v20l41 12v-133v-43v-12h-698h-27h-315zM342 1763l158 55l178 -145l22 -45z" />
<glyph unicode="&#xc9;" d="M2 0l12 39h21q47 0 78 37q23 27 22 63v1254v2q0 41 -28.5 69.5t-69.5 28.5h-23l-12 41h277h65h660v-12v-45v-134l-41 13v20q0 47 -37 78q-27 23 -62 23h-12h-508v-670l307 2q35 0 64 22q35 29 35 78v21l41 12v-125v-53v-123l-41 12v21q0 49 -35 78q-29 23 -64 22h-307 v-719h561q33 2 62 23q35 31 34 78v20l41 12v-133v-43v-12h-698h-27h-315zM342 1626l20 47l180 143l156 -55z" />
<glyph unicode="&#xca;" d="M2 0l12 39h21q47 0 78 37q23 27 22 63v1254v2q0 41 -28.5 69.5t-69.5 28.5h-23l-12 41h277h65h660v-12v-45v-134l-41 13v20q0 47 -37 78q-27 23 -62 23h-12h-508v-670l307 2q35 0 64 22q35 29 35 78v21l41 12v-125v-53v-123l-41 12v21q0 49 -35 78q-29 23 -64 22h-307 v-719h561q33 2 62 23q35 31 34 78v20l41 12v-133v-43v-12h-698h-27h-315zM293 1646l168 219h131l157 -219h-90l-133 123l-145 -123h-88z" />
<glyph unicode="&#xcb;" d="M2 0l12 39h21q47 0 78 37q23 27 22 63v1254v2q0 41 -28.5 69.5t-69.5 28.5h-23l-12 41h277h65h660v-12v-45v-134l-41 13v20q0 47 -37 78q-27 23 -62 23h-12h-508v-670l307 2q35 0 64 22q35 29 35 78v21l41 12v-125v-53v-123l-41 12v21q0 49 -35 78q-29 23 -64 22h-307 v-719h561q33 2 62 23q35 31 34 78v20l41 12v-133v-43v-12h-698h-27h-315zM286 1724q0 35 24 59.5t58 24.5q35 0 59.5 -24.5t24.5 -59.5t-24.5 -58.5t-59.5 -23.5t-58.5 23.5t-23.5 58.5zM590 1724q0 35 23.5 59.5t58.5 24.5t59 -24.5t24 -59.5t-24 -58.5t-59 -23.5 t-58.5 23.5t-23.5 58.5z" />
<glyph unicode="&#xcc;" horiz-adv-x="477" d="M0 0l14 41h21q45 0 76 37q23 27 22 61l2 1256q0 41 -29.5 69.5t-70.5 28.5h-21l-14 41h477l-12 -41h-21q-47 0 -77 -35q-23 -29 -23 -63v-1268q4 -37 31.5 -61.5t66.5 -24.5h23l12 -41h-4h-473zM59 1763l158 55l178 -145l22 -45z" />
<glyph unicode="&#xcd;" horiz-adv-x="477" d="M0 0l14 41h21q45 0 76 37q23 27 22 61l2 1256q0 41 -29.5 69.5t-70.5 28.5h-21l-14 41h477l-12 -41h-21q-47 0 -77 -35q-23 -29 -23 -63v-1268q4 -37 31.5 -61.5t66.5 -24.5h23l12 -41h-4h-473zM66 1626l20 47l180 143l156 -55z" />
<glyph unicode="&#xce;" horiz-adv-x="477" d="M0 0l14 41h21q45 0 76 37q23 27 22 61l2 1256q0 41 -29.5 69.5t-70.5 28.5h-21l-14 41h477l-12 -41h-21q-47 0 -77 -35q-23 -29 -23 -63v-1268q4 -37 31.5 -61.5t66.5 -24.5h23l12 -41h-4h-473zM15 1646l168 219h131l157 -219h-90l-133 123l-145 -123h-88z" />
<glyph unicode="&#xcf;" horiz-adv-x="477" d="M0 0l14 41h21q45 0 76 37q23 27 22 61l2 1256q0 41 -29.5 69.5t-70.5 28.5h-21l-14 41h477l-12 -41h-21q-47 0 -77 -35q-23 -29 -23 -63v-1268q4 -37 31.5 -61.5t66.5 -24.5h23l12 -41h-4h-473zM8 1724q0 35 24 59.5t58 24.5q35 0 59.5 -24.5t24.5 -59.5t-24.5 -58.5 t-59.5 -23.5t-58.5 23.5t-23.5 58.5zM312 1724q0 35 23.5 59.5t58.5 24.5t59 -24.5t24 -59.5t-24 -58.5t-59 -23.5t-58.5 23.5t-23.5 58.5z" />
<glyph unicode="&#xd0;" horiz-adv-x="1415" d="M0 0l12 39h21q47 0 78 37q23 27 22 63l2 1256q0 41 -29.5 69.5t-70.5 28.5h-23l-12 41h225q86 4 215.5 8t264.5 4q139 0 262 -61.5t214 -168t144 -248.5t53 -304t-53 -304.5t-144 -249t-214 -167.5t-262 -61q-115 0 -235 6t-210 12h-260zM342 59h363q94 0 178 55.5 t147.5 151.5t99 225.5t35.5 274.5q0 147 -35.5 276t-99 225.5t-147.5 152t-178 55.5h-18.5t-42.5 -1t-58.5 -1h-65.5h-178v-1414zM344 760v61h582v-61h-582z" />
<glyph unicode="&#xd1;" horiz-adv-x="1323" d="M0 0l14 41h21q41 0 70.5 28.5t29.5 69.5l-2 1256q0 35 -20 61q-31 37 -78 37h-21l-14 41h342l637 -1200v1198h342l-12 -39h-23q-41 0 -70.5 -29.5t-29.5 -70.5l2 -1256q0 -35 22 -61q31 -37 78 -37h21l12 -41h-342v154l-637 1200v-1213q0 -41 29.5 -69.5t70.5 -28.5h21 l14 -41h-477zM378 1767q25 23 52 41q23 16 51.5 29.5t56.5 13.5h6q43 0 80 -17.5t70 -37t60.5 -35.5t49.5 -16q23 0 45.5 9t38.5 19q20 12 37 29l17 -57q-27 -25 -54 -43q-23 -16 -51 -28.5t-57 -12.5h-4q-43 0 -80 17t-69.5 36.5t-61.5 36t-51 16.5q-23 0 -45.5 -9 t-38.5 -20q-20 -12 -37 -28z" />
<glyph unicode="&#xd2;" horiz-adv-x="1411" d="M29 764q0 162 53 304t144 248.5t214 168t262 61.5t262 -61.5t214.5 -168t144.5 -248.5t53 -304t-53 -305.5t-144.5 -250t-214 -167.5t-262.5 -61q-139 0 -262 61t-214 167.5t-144 250t-53 305.5zM242 766q0 -147 35.5 -275.5t99 -224.5t146.5 -151.5t179 -55.5 q94 0 178.5 55.5t148 151.5t99 224t35.5 276q0 147 -35.5 275t-99 224.5t-147.5 152t-179 55.5q-96 0 -179 -55.5t-146.5 -152t-99 -224.5t-35.5 -275zM526 1763l158 55l178 -145l22 -45z" />
<glyph unicode="&#xd3;" horiz-adv-x="1411" d="M29 764q0 162 53 304t144 248.5t214 168t262 61.5t262 -61.5t214.5 -168t144.5 -248.5t53 -304t-53 -305.5t-144.5 -250t-214 -167.5t-262.5 -61q-139 0 -262 61t-214 167.5t-144 250t-53 305.5zM242 766q0 -147 35.5 -275.5t99 -224.5t146.5 -151.5t179 -55.5 q94 0 178.5 55.5t148 151.5t99 224t35.5 276q0 147 -35.5 275t-99 224.5t-147.5 152t-179 55.5q-96 0 -179 -55.5t-146.5 -152t-99 -224.5t-35.5 -275zM527 1626l20 47l180 143l156 -55z" />
<glyph unicode="&#xd4;" horiz-adv-x="1411" d="M29 764q0 162 53 304t144 248.5t214 168t262 61.5t262 -61.5t214.5 -168t144.5 -248.5t53 -304t-53 -305.5t-144.5 -250t-214 -167.5t-262.5 -61q-139 0 -262 61t-214 167.5t-144 250t-53 305.5zM242 766q0 -147 35.5 -275.5t99 -224.5t146.5 -151.5t179 -55.5 q94 0 178.5 55.5t148 151.5t99 224t35.5 276q0 147 -35.5 275t-99 224.5t-147.5 152t-179 55.5q-96 0 -179 -55.5t-146.5 -152t-99 -224.5t-35.5 -275zM477 1646l168 219h131l157 -219h-90l-133 123l-145 -123h-88z" />
<glyph unicode="&#xd5;" horiz-adv-x="1411" d="M29 764q0 162 53 304t144 248.5t214 168t262 61.5t262 -61.5t214.5 -168t144.5 -248.5t53 -304t-53 -305.5t-144.5 -250t-214 -167.5t-262.5 -61q-139 0 -262 61t-214 167.5t-144 250t-53 305.5zM242 766q0 -147 35.5 -275.5t99 -224.5t146.5 -151.5t179 -55.5 q94 0 178.5 55.5t148 151.5t99 224t35.5 276q0 147 -35.5 275t-99 224.5t-147.5 152t-179 55.5q-96 0 -179 -55.5t-146.5 -152t-99 -224.5t-35.5 -275zM423 1767q25 23 52 41q23 16 51.5 29.5t56.5 13.5h6q43 0 80 -17.5t70 -37t60.5 -35.5t49.5 -16q23 0 45.5 9t38.5 19 q20 12 37 29l17 -57q-27 -25 -54 -43q-23 -16 -51 -28.5t-57 -12.5h-4q-43 0 -80 17t-69.5 36.5t-61.5 36t-51 16.5q-23 0 -45.5 -9t-38.5 -20q-20 -12 -37 -28z" />
<glyph unicode="&#xd6;" horiz-adv-x="1411" d="M29 764q0 162 53 304t144 248.5t214 168t262 61.5t262 -61.5t214.5 -168t144.5 -248.5t53 -304t-53 -305.5t-144.5 -250t-214 -167.5t-262.5 -61q-139 0 -262 61t-214 167.5t-144 250t-53 305.5zM242 766q0 -147 35.5 -275.5t99 -224.5t146.5 -151.5t179 -55.5 q94 0 178.5 55.5t148 151.5t99 224t35.5 276q0 147 -35.5 275t-99 224.5t-147.5 152t-179 55.5q-96 0 -179 -55.5t-146.5 -152t-99 -224.5t-35.5 -275zM471 1724q0 35 24 59.5t58 24.5q35 0 59.5 -24.5t24.5 -59.5t-24.5 -58.5t-59.5 -23.5t-58.5 23.5t-23.5 58.5zM775 1724 q0 35 23.5 59.5t58.5 24.5t59 -24.5t24 -59.5t-24 -58.5t-59 -23.5t-58.5 23.5t-23.5 58.5z" />
<glyph unicode="&#xd7;" horiz-adv-x="552" d="M49 362l182 185l-182 184l43 43l184 -184l183 184l45 -43l-185 -184l185 -185l-45 -43l-183 185l-184 -185z" />
<glyph unicode="&#xd8;" horiz-adv-x="1411" d="M29 764q0 162 53 304t144 248.5t214 168t262 61.5t262 -61.5t214.5 -168t144.5 -248.5t53 -304t-53 -305.5t-144.5 -250t-214 -167.5t-262.5 -61q-139 0 -262 61t-214 167.5t-144 250t-53 305.5zM242 766q0 -147 35.5 -275.5t99 -224.5t146.5 -151.5t179 -55.5 q94 0 178.5 55.5t148 151.5t99 224t35.5 276q0 147 -35.5 275t-99 224.5t-147.5 152t-179 55.5q-96 0 -179 -55.5t-146.5 -152t-99 -224.5t-35.5 -275zM414 0l512 1534h71l-512 -1534h-71z" />
<glyph unicode="&#xd9;" horiz-adv-x="1282" d="M2 1534h475l-12 -39h-23q-41 0 -70.5 -29.5t-29.5 -70.5v-500v-420q0 -74 28.5 -139.5t78 -114.5t115 -76.5t138.5 -27.5q74 0 139.5 27.5t115 76.5t78 114.5t28.5 139.5v920q0 41 -29.5 70.5t-70.5 29.5h-21l-12 39h350l-12 -39h-21q-41 0 -70.5 -29.5t-29.5 -70.5v-910 q0 -104 -40 -196t-108.5 -161t-161 -108.5t-196.5 -39.5t-196.5 39.5t-161 108.5t-108.5 161t-40 196v910q0 41 -29.5 70.5t-70.5 29.5h-21zM461 1763l158 55l178 -145l22 -45z" />
<glyph unicode="&#xda;" horiz-adv-x="1282" d="M2 1534h475l-12 -39h-23q-41 0 -70.5 -29.5t-29.5 -70.5v-500v-420q0 -74 28.5 -139.5t78 -114.5t115 -76.5t138.5 -27.5q74 0 139.5 27.5t115 76.5t78 114.5t28.5 139.5v920q0 41 -29.5 70.5t-70.5 29.5h-21l-12 39h350l-12 -39h-21q-41 0 -70.5 -29.5t-29.5 -70.5v-910 q0 -104 -40 -196t-108.5 -161t-161 -108.5t-196.5 -39.5t-196.5 39.5t-161 108.5t-108.5 161t-40 196v910q0 41 -29.5 70.5t-70.5 29.5h-21zM463 1626l20 47l180 143l156 -55z" />
<glyph unicode="&#xdb;" horiz-adv-x="1282" d="M2 1534h475l-12 -39h-23q-41 0 -70.5 -29.5t-29.5 -70.5v-500v-420q0 -74 28.5 -139.5t78 -114.5t115 -76.5t138.5 -27.5q74 0 139.5 27.5t115 76.5t78 114.5t28.5 139.5v920q0 41 -29.5 70.5t-70.5 29.5h-21l-12 39h350l-12 -39h-21q-41 0 -70.5 -29.5t-29.5 -70.5v-910 q0 -104 -40 -196t-108.5 -161t-161 -108.5t-196.5 -39.5t-196.5 39.5t-161 108.5t-108.5 161t-40 196v910q0 41 -29.5 70.5t-70.5 29.5h-21zM412 1646l168 219h131l157 -219h-90l-133 123l-145 -123h-88z" />
<glyph unicode="&#xdc;" horiz-adv-x="1282" d="M2 1534h475l-12 -39h-23q-41 0 -70.5 -29.5t-29.5 -70.5v-500v-420q0 -74 28.5 -139.5t78 -114.5t115 -76.5t138.5 -27.5q74 0 139.5 27.5t115 76.5t78 114.5t28.5 139.5v920q0 41 -29.5 70.5t-70.5 29.5h-21l-12 39h350l-12 -39h-21q-41 0 -70.5 -29.5t-29.5 -70.5v-910 q0 -104 -40 -196t-108.5 -161t-161 -108.5t-196.5 -39.5t-196.5 39.5t-161 108.5t-108.5 161t-40 196v910q0 41 -29.5 70.5t-70.5 29.5h-21zM405 1724q0 35 24 59.5t58 24.5q35 0 59.5 -24.5t24.5 -59.5t-24.5 -58.5t-59.5 -23.5t-58.5 23.5t-23.5 58.5zM709 1724 q0 35 23.5 59.5t58.5 24.5t59 -24.5t24 -59.5t-24 -58.5t-59 -23.5t-58.5 23.5t-23.5 58.5z" />
<glyph unicode="&#xdd;" horiz-adv-x="1116" d="M0 1536h356l-12 -41h-22q-41 0 -67 -26.5t1 -71.5l246 -539l229 539q18 43 -3 70.5t-62 27.5h-23l-12 41h481l-14 -41h-21q-23 0 -42 -3t-36 -17q-12 -10 -29.5 -27.5t-33.5 -50.5l-283 -627v-647q4 -37 32 -61.5t67 -24.5h22l12 -41h-4h-471l13 41h20q47 0 78 35 q10 14 16 29.5t6 33.5v662l-278 600q-20 35 -31.5 49t-23.5 24q-31 25 -78 25h-21zM379 1626l20 47l180 143l156 -55z" />
<glyph unicode="&#xde;" horiz-adv-x="1300" d="M-2 0l12 41h21q47 0 78 37q23 27 22 63v1254q0 41 -29.5 70.5t-70.5 29.5h-21l-12 39h223q23 2 55.5 3t59.5 3q2 0 3 -21.5t2 -54t0 -70.5t0 -71t2 -54.5t3 -21.5q37 2 61.5 2t47 -1t51.5 -2t74 -1q139 0 262 -14t214 -63.5t144 -144.5t53 -257t-53 -257t-144 -144.5 t-214 -63.5t-262 -14q-43 0 -71 -1t-51.5 -1t-48 1t-63.5 3q-4 0 -4 -46v-100.5v-99.5t-4 -45q-16 0 -41 1t-39 1h-260zM340 369h240q94 0 178 7t147.5 46t99 119t35.5 227t-35.5 228t-99 119t-147.5 46t-178 8q-4 0 -41 -1t-82 -1h-117v-798z" />
<glyph unicode="&#xdf;" horiz-adv-x="1058" d="M0 -2l12 41h23q41 0 70.5 28.5t29.5 69.5l-2 1049q-6 98 29 176q14 33 38.5 64.5t63.5 57t92.5 41t126.5 15.5q74 0 129.5 -12t97.5 -33.5t71.5 -48.5t47.5 -53q45 -66 52 -146q4 -90 -17 -160q-8 -31 -23.5 -59.5t-39 -51t-57 -35.5t-78.5 -13h26q27 0 68 -7.5t87 -25.5 t87 -57t67.5 -103.5t26.5 -163.5q0 -74 -20.5 -132t-52 -104t-73.5 -81t-85 -59q-102 -59 -232 -84l-33 43q82 49 150 112q57 53 104.5 129t47.5 174q0 94 -47.5 155.5t-104.5 96.5q-68 41 -150 64l-18 67q57 4 102 37q39 29 72 85t33 161q0 102 -37 153.5t-80 69.5 q-53 23 -117 17q-45 4 -81 -45q-16 -20 -31 -54.5t-26 -85.5t-18 -123t-7 -168v-862q0 -41 29.5 -69.5t70.5 -28.5h22l13 -41h-459z" />
<glyph unicode="&#xe0;" horiz-adv-x="802" d="M55 213q0 45 17.5 85t47.5 69.5t69.5 47t84.5 17.5h234v146q2 51 -17.5 82.5t-49 47t-65.5 14.5t-65.5 -13.5t-50 -36t-20.5 -54.5q0 -37 -13.5 -57t-62.5 -20q-51 0 -63.5 25.5t-12.5 54.5q0 8 10.5 32.5t38 50t76.5 45t127 19.5q111 0 179.5 -21.5t107.5 -55.5t52 -76 t13 -80v-207q0 -82 2 -187q0 -37 23 -63q31 -37 78 -37h20l12 -41h-276l-39 57q-14 -14 -45 -25.5t-66.5 -19.5t-69.5 -12t-57 -4q-45 0 -84.5 17.5t-69.5 46t-47.5 68.5t-17.5 85zM221 1108l158 55l178 -145l22 -45zM240 225q0 -72 26.5 -126t65.5 -54q41 0 73.5 9t55.5 22 q27 14 47 33v299h-164q-18 0 -37.5 -15.5t-34 -40t-23.5 -57.5t-9 -70z" />
<glyph unicode="&#xe1;" horiz-adv-x="802" d="M55 213q0 45 17.5 85t47.5 69.5t69.5 47t84.5 17.5h234v146q2 51 -17.5 82.5t-49 47t-65.5 14.5t-65.5 -13.5t-50 -36t-20.5 -54.5q0 -37 -13.5 -57t-62.5 -20q-51 0 -63.5 25.5t-12.5 54.5q0 8 10.5 32.5t38 50t76.5 45t127 19.5q111 0 179.5 -21.5t107.5 -55.5t52 -76 t13 -80v-207q0 -82 2 -187q0 -37 23 -63q31 -37 78 -37h20l12 -41h-276l-39 57q-14 -14 -45 -25.5t-66.5 -19.5t-69.5 -12t-57 -4q-45 0 -84.5 17.5t-69.5 46t-47.5 68.5t-17.5 85zM223 971l20 47l180 143l156 -55zM240 225q0 -72 26.5 -126t65.5 -54q41 0 73.5 9t55.5 22 q27 14 47 33v299h-164q-18 0 -37.5 -15.5t-34 -40t-23.5 -57.5t-9 -70z" />
<glyph unicode="&#xe2;" horiz-adv-x="802" d="M55 213q0 45 17.5 85t47.5 69.5t69.5 47t84.5 17.5h234v146q2 51 -17.5 82.5t-49 47t-65.5 14.5t-65.5 -13.5t-50 -36t-20.5 -54.5q0 -37 -13.5 -57t-62.5 -20q-51 0 -63.5 25.5t-12.5 54.5q0 8 10.5 32.5t38 50t76.5 45t127 19.5q111 0 179.5 -21.5t107.5 -55.5t52 -76 t13 -80v-207q0 -82 2 -187q0 -37 23 -63q31 -37 78 -37h20l12 -41h-276l-39 57q-14 -14 -45 -25.5t-66.5 -19.5t-69.5 -12t-57 -4q-45 0 -84.5 17.5t-69.5 46t-47.5 68.5t-17.5 85zM172 991l168 219h131l157 -219h-90l-133 123l-145 -123h-88zM240 225q0 -72 26.5 -126 t65.5 -54q41 0 73.5 9t55.5 22q27 14 47 33v299h-164q-18 0 -37.5 -15.5t-34 -40t-23.5 -57.5t-9 -70z" />
<glyph unicode="&#xe3;" horiz-adv-x="802" d="M55 213q0 45 17.5 85t47.5 69.5t69.5 47t84.5 17.5h234v146q2 51 -17.5 82.5t-49 47t-65.5 14.5t-65.5 -13.5t-50 -36t-20.5 -54.5q0 -37 -13.5 -57t-62.5 -20q-51 0 -63.5 25.5t-12.5 54.5q0 8 10.5 32.5t38 50t76.5 45t127 19.5q111 0 179.5 -21.5t107.5 -55.5t52 -76 t13 -80v-207q0 -82 2 -187q0 -37 23 -63q31 -37 78 -37h20l12 -41h-276l-39 57q-14 -14 -45 -25.5t-66.5 -19.5t-69.5 -12t-57 -4q-45 0 -84.5 17.5t-69.5 46t-47.5 68.5t-17.5 85zM118 1112q25 23 52 41q23 16 51.5 29.5t56.5 13.5h6q43 0 80 -17.5t70 -37t60.5 -35.5 t49.5 -16q23 0 45.5 9t38.5 19q20 12 37 29l17 -57q-27 -25 -54 -43q-23 -16 -51 -28.5t-57 -12.5h-4q-43 0 -80 17t-69.5 36.5t-61.5 36t-51 16.5q-23 0 -45.5 -9t-38.5 -20q-20 -12 -37 -28zM240 225q0 -72 26.5 -126t65.5 -54q41 0 73.5 9t55.5 22q27 14 47 33v299h-164 q-18 0 -37.5 -15.5t-34 -40t-23.5 -57.5t-9 -70z" />
<glyph unicode="&#xe4;" horiz-adv-x="802" d="M55 213q0 45 17.5 85t47.5 69.5t69.5 47t84.5 17.5h234v146q2 51 -17.5 82.5t-49 47t-65.5 14.5t-65.5 -13.5t-50 -36t-20.5 -54.5q0 -37 -13.5 -57t-62.5 -20q-51 0 -63.5 25.5t-12.5 54.5q0 8 10.5 32.5t38 50t76.5 45t127 19.5q111 0 179.5 -21.5t107.5 -55.5t52 -76 t13 -80v-207q0 -82 2 -187q0 -37 23 -63q31 -37 78 -37h20l12 -41h-276l-39 57q-14 -14 -45 -25.5t-66.5 -19.5t-69.5 -12t-57 -4q-45 0 -84.5 17.5t-69.5 46t-47.5 68.5t-17.5 85zM145 1069q0 35 24 59.5t58 24.5q35 0 59.5 -24.5t24.5 -59.5t-24.5 -58.5t-59.5 -23.5 t-58.5 23.5t-23.5 58.5zM240 225q0 -72 26.5 -126t65.5 -54q41 0 73.5 9t55.5 22q27 14 47 33v299h-164q-18 0 -37.5 -15.5t-34 -40t-23.5 -57.5t-9 -70zM449 1069q0 35 23.5 59.5t58.5 24.5t59 -24.5t24 -59.5t-24 -58.5t-59 -23.5t-58.5 23.5t-23.5 58.5z" />
<glyph unicode="&#xe5;" horiz-adv-x="802" d="M55 213q0 45 17.5 85t47.5 69.5t69.5 47t84.5 17.5h234v146q2 51 -17.5 82.5t-49 47t-65.5 14.5t-65.5 -13.5t-50 -36t-20.5 -54.5q0 -37 -13.5 -57t-62.5 -20q-51 0 -63.5 25.5t-12.5 54.5q0 8 10.5 32.5t38 50t76.5 45t127 19.5q111 0 179.5 -21.5t107.5 -55.5t52 -76 t13 -80v-207q0 -82 2 -187q0 -37 23 -63q31 -37 78 -37h20l12 -41h-276l-39 57q-14 -14 -45 -25.5t-66.5 -19.5t-69.5 -12t-57 -4q-45 0 -84.5 17.5t-69.5 46t-47.5 68.5t-17.5 85zM232 1069q0 61 44 104.5t105 43.5t105.5 -43.5t44.5 -104.5t-44.5 -105t-105.5 -44t-105 44 t-44 105zM240 225q0 -72 26.5 -126t65.5 -54q41 0 73.5 9t55.5 22q27 14 47 33v299h-164q-18 0 -37.5 -15.5t-34 -40t-23.5 -57.5t-9 -70zM267 1069q0 -47 33.5 -81t80.5 -34t81 34t34 81t-34 81t-81 34t-80.5 -34t-33.5 -81z" />
<glyph unicode="&#xe6;" horiz-adv-x="1310" d="M55 213q0 45 17.5 85t47.5 69.5t69.5 47t84.5 17.5h234v146q2 51 -17.5 82.5t-49 47t-65.5 14.5t-65.5 -13.5t-50 -36t-20.5 -54.5q0 -37 -13.5 -57t-62.5 -20q-51 0 -63.5 25.5t-12.5 54.5q0 8 10.5 32.5t38 50t76.5 45t127 19.5q111 0 179.5 -21.5t107.5 -55.5t52 -76 t13 -80v-207q0 -82 2 -187q0 -37 23 -63q31 -37 78 -37h20l12 -41h-276l-39 57q-14 -14 -45 -25.5t-66.5 -19.5t-69.5 -12t-57 -4q-45 0 -84.5 17.5t-69.5 46t-47.5 68.5t-17.5 85zM240 225q0 -72 26.5 -126t65.5 -54q41 0 73.5 9t55.5 22q27 14 47 33v299h-164 q-18 0 -37.5 -15.5t-34 -40t-23.5 -57.5t-9 -70zM483 389q0 82 32 155.5t86.5 128t127 86.5t156.5 32q82 0 155.5 -32t128 -86.5t86 -128t31.5 -155.5h-194h-357h-59q0 -74 23.5 -132t61.5 -99t83 -62.5t88 -21.5q88 0 166 53t110 164h66q-16 -66 -52 -121t-87 -96 t-115.5 -63.5t-134.5 -22.5q-84 0 -156.5 31.5t-127 86t-86.5 127t-32 156.5zM678 444l412 2q-6 63 -24.5 119t-46.5 95.5t-61.5 63.5t-72.5 24t-74 -24t-62.5 -63.5t-46 -96t-24.5 -120.5z" />
<glyph unicode="&#xe7;" horiz-adv-x="645" d="M-2 385q0 84 31.5 157.5t86 128t127 86t156.5 31.5q45 0 82 -2t64 -6q31 -4 55 -6v-178l-41 12q-29 72 -67.5 103.5t-92.5 31.5q-43 0 -80.5 -27.5t-66.5 -76.5t-45.5 -114.5t-16.5 -139.5t16.5 -138.5t45.5 -113.5t66.5 -76.5t80.5 -27.5q55 0 101.5 45t74.5 121h70 q-33 -98 -97.5 -154.5t-148.5 -56.5t-156.5 31.5t-127 86t-86 127t-31.5 156.5zM101 -395l69 49q72 -14 129 -14q49 0 90 15t41 62t-31.5 67.5t-70.5 29.5q-45 8 -100 4l36 180h58v-139q61 -10 110 -29q41 -16 76 -43t35 -70t-22.5 -74.5t-56.5 -52t-74 -31t-76 -10.5 q-37 0 -75 8.5t-69 18.5q-37 12 -69 29z" />
<glyph unicode="&#xe8;" horiz-adv-x="845" d="M20 389q0 82 32 155.5t86.5 128t127 86.5t156.5 32q82 0 155.5 -32t128 -86.5t86 -128t31.5 -155.5h-194h-357h-59q0 -74 23.5 -132t61.5 -99t83 -62.5t88 -21.5q88 0 166 53t110 164h66q-16 -66 -52 -121t-87 -96t-115.5 -63.5t-134.5 -22.5q-84 0 -156.5 31.5t-127 86 t-86.5 127t-32 156.5zM215 444l412 2q-6 63 -24.5 119t-46.5 95.5t-61.5 63.5t-72.5 24t-74 -24t-62.5 -63.5t-46 -96t-24.5 -120.5zM244 1108l158 55l178 -145l22 -45z" />
<glyph unicode="&#xe9;" horiz-adv-x="845" d="M20 389q0 82 32 155.5t86.5 128t127 86.5t156.5 32q82 0 155.5 -32t128 -86.5t86 -128t31.5 -155.5h-194h-357h-59q0 -74 23.5 -132t61.5 -99t83 -62.5t88 -21.5q88 0 166 53t110 164h66q-16 -66 -52 -121t-87 -96t-115.5 -63.5t-134.5 -22.5q-84 0 -156.5 31.5t-127 86 t-86.5 127t-32 156.5zM215 444l412 2q-6 63 -24.5 119t-46.5 95.5t-61.5 63.5t-72.5 24t-74 -24t-62.5 -63.5t-46 -96t-24.5 -120.5zM244 971l20 47l180 143l156 -55z" />
<glyph unicode="&#xea;" horiz-adv-x="845" d="M20 389q0 82 32 155.5t86.5 128t127 86.5t156.5 32q82 0 155.5 -32t128 -86.5t86 -128t31.5 -155.5h-194h-357h-59q0 -74 23.5 -132t61.5 -99t83 -62.5t88 -21.5q88 0 166 53t110 164h66q-16 -66 -52 -121t-87 -96t-115.5 -63.5t-134.5 -22.5q-84 0 -156.5 31.5t-127 86 t-86.5 127t-32 156.5zM195 991l168 219h131l157 -219h-90l-133 123l-145 -123h-88zM215 444l412 2q-6 63 -24.5 119t-46.5 95.5t-61.5 63.5t-72.5 24t-74 -24t-62.5 -63.5t-46 -96t-24.5 -120.5z" />
<glyph unicode="&#xeb;" horiz-adv-x="845" d="M20 389q0 82 32 155.5t86.5 128t127 86.5t156.5 32q82 0 155.5 -32t128 -86.5t86 -128t31.5 -155.5h-194h-357h-59q0 -74 23.5 -132t61.5 -99t83 -62.5t88 -21.5q88 0 166 53t110 164h66q-16 -66 -52 -121t-87 -96t-115.5 -63.5t-134.5 -22.5q-84 0 -156.5 31.5t-127 86 t-86.5 127t-32 156.5zM188 1069q0 35 24 59.5t58 24.5q35 0 59.5 -24.5t24.5 -59.5t-24.5 -58.5t-59.5 -23.5t-58.5 23.5t-23.5 58.5zM215 444l412 2q-6 63 -24.5 119t-46.5 95.5t-61.5 63.5t-72.5 24t-74 -24t-62.5 -63.5t-46 -96t-24.5 -120.5zM492 1069q0 35 23.5 59.5 t58.5 24.5t59 -24.5t24 -59.5t-24 -58.5t-59 -23.5t-58.5 23.5t-23.5 58.5z" />
<glyph unicode="&#xec;" horiz-adv-x="452" d="M-4 2l14 41h21q41 0 70.5 28.5t29.5 69.5l-2 445q0 33 -20 63q-31 37 -78 37h-21l-14 39l326 43v-627q0 -41 29.5 -69.5t70.5 -28.5h20l13 -41h-459zM47 1108l158 55l178 -145l23 -45z" />
<glyph unicode="&#xed;" horiz-adv-x="452" d="M-4 2h459l-13 41h-20q-41 0 -70.5 28.5t-29.5 69.5v627l-326 -43l14 -39h21q47 0 78 -37q20 -31 20 -63l2 -445q0 -41 -29.5 -69.5t-70.5 -28.5h-21zM49 971l21 47l180 143l156 -55z" />
<glyph unicode="&#xee;" horiz-adv-x="452" d="M-4 2l14 41h21q41 0 70.5 28.5t29.5 69.5l-2 445q0 33 -20 63q-31 37 -78 37h-21l-14 39l326 43v-627q0 -41 29.5 -69.5t70.5 -28.5h20l13 -41h-459zM-2 991l168 219h131l158 -219h-90l-134 123l-145 -123h-88z" />
<glyph unicode="&#xef;" horiz-adv-x="452" d="M-8 1069q0 35 23.5 59.5t58.5 24.5t59.5 -24.5t24.5 -59.5t-24.5 -58.5t-59.5 -23.5t-58.5 23.5t-23.5 58.5zM-4 2l14 41h21q41 0 70.5 28.5t29.5 69.5l-2 445q0 33 -20 63q-31 37 -78 37h-21l-14 39l326 43v-627q0 -41 29.5 -69.5t70.5 -28.5h20l13 -41h-459zM295 1069 q0 35 23.5 59.5t58.5 24.5t59.5 -24.5t24.5 -59.5t-24.5 -58.5t-59.5 -23.5t-58.5 23.5t-23.5 58.5z" />
<glyph unicode="&#xf0;" horiz-adv-x="915" d="M29 416q0 137 48 226t121.5 138t162 64.5t166 9.5t136 -29.5t72.5 -52.5q-16 100 -53 188.5t-88 162t-111.5 134t-122.5 107.5q-143 113 -313 186q252 -57 453 -182q86 -53 167 -126t145.5 -169t103 -219t38.5 -274q0 -182 -45 -299t-115.5 -184.5t-155.5 -94.5t-167 -27 t-162 30t-142.5 86t-100 138t-37.5 187zM197 1036l395 498h102l-397 -498h-100zM248 422q0 -80 17.5 -149.5t47 -122t69.5 -82t87 -29.5q45 0 79 10t61.5 35t51 67t48.5 105q23 63 35 130t15 127t-2.5 111.5t-13.5 82.5q-63 66 -133.5 87t-140.5 11q-45 -8 -85 -39 t-70.5 -81t-48 -116.5t-17.5 -146.5z" />
<glyph unicode="&#xf1;" d="M0 0l12 39h21q47 0 78 37q4 4 6 10t6 10q4 10 7 20.5t3 22.5v463q0 41 -29.5 70.5t-70.5 29.5h-21l-12 39l326 31l-2 -55q41 33 87 52t121 19q106 0 179 -31.5t118 -86t64.5 -128t19.5 -155.5l-4 -248q2 -41 31 -70.5t70 -29.5h22l12 -39h-323q-2 106 -2 190q0 37 -1 71 t-1 61.5v45v19.5q0 74 -7.5 138.5t-26.5 112.5t-56 76.5t-97 30.5q-43 0 -73.5 -14t-52 -38.5t-37 -57.5t-23.5 -66q-23 -80 -20 -182q0 -4 -1 -46t-1 -89v-125q4 -37 31.5 -62.5t66.5 -25.5h22l13 -39h-455zM239 1112q25 23 52 41q23 16 51.5 29.5t56.5 13.5h6 q43 0 80 -17.5t70 -37t60.5 -35.5t49.5 -16q23 0 45.5 9t38.5 19q20 12 37 29l17 -57q-27 -25 -54 -43q-23 -16 -51 -28.5t-57 -12.5h-4q-43 0 -80 17t-69.5 36.5t-61.5 36t-51 16.5q-23 0 -45.5 -9t-38.5 -20q-20 -12 -37 -28z" />
<glyph unicode="&#xf2;" horiz-adv-x="849" d="M23 385q0 82 31.5 155.5t86 128t127 86t156.5 31.5t157.5 -31.5t128 -86t86 -128t31.5 -155.5q0 -84 -31.5 -156.5t-86 -127t-128 -86t-157.5 -31.5t-156.5 31.5t-127 86t-86 127t-31.5 156.5zM217 385q0 -74 16.5 -139.5t44 -114.5t65.5 -76.5t81 -27.5t81 27.5 t66.5 76.5t45 114.5t16.5 139.5t-16.5 139.5t-45 114.5t-66.5 76.5t-81 27.5t-81 -27.5t-65.5 -76.5t-44 -114.5t-16.5 -139.5zM246 1108l158 55l178 -145l22 -45z" />
<glyph unicode="&#xf3;" horiz-adv-x="849" d="M23 385q0 82 31.5 155.5t86 128t127 86t156.5 31.5t157.5 -31.5t128 -86t86 -128t31.5 -155.5q0 -84 -31.5 -156.5t-86 -127t-128 -86t-157.5 -31.5t-156.5 31.5t-127 86t-86 127t-31.5 156.5zM217 385q0 -74 16.5 -139.5t44 -114.5t65.5 -76.5t81 -27.5t81 27.5 t66.5 76.5t45 114.5t16.5 139.5t-16.5 139.5t-45 114.5t-66.5 76.5t-81 27.5t-81 -27.5t-65.5 -76.5t-44 -114.5t-16.5 -139.5zM246 971l20 47l180 143l156 -55z" />
<glyph unicode="&#xf4;" horiz-adv-x="849" d="M23 385q0 82 31.5 155.5t86 128t127 86t156.5 31.5t157.5 -31.5t128 -86t86 -128t31.5 -155.5q0 -84 -31.5 -156.5t-86 -127t-128 -86t-157.5 -31.5t-156.5 31.5t-127 86t-86 127t-31.5 156.5zM197 991l168 219h131l157 -219h-90l-133 123l-145 -123h-88zM217 385 q0 -74 16.5 -139.5t44 -114.5t65.5 -76.5t81 -27.5t81 27.5t66.5 76.5t45 114.5t16.5 139.5t-16.5 139.5t-45 114.5t-66.5 76.5t-81 27.5t-81 -27.5t-65.5 -76.5t-44 -114.5t-16.5 -139.5z" />
<glyph unicode="&#xf5;" horiz-adv-x="849" d="M23 385q0 82 31.5 155.5t86 128t127 86t156.5 31.5t157.5 -31.5t128 -86t86 -128t31.5 -155.5q0 -84 -31.5 -156.5t-86 -127t-128 -86t-157.5 -31.5t-156.5 31.5t-127 86t-86 127t-31.5 156.5zM143 1112q25 23 52 41q23 16 51.5 29.5t56.5 13.5h6q43 0 80 -17.5t70 -37 t60.5 -35.5t49.5 -16q23 0 45.5 9t38.5 19q20 12 37 29l17 -57q-27 -25 -54 -43q-23 -16 -51 -28.5t-57 -12.5h-4q-43 0 -80 17t-69.5 36.5t-61.5 36t-51 16.5q-23 0 -45.5 -9t-38.5 -20q-20 -12 -37 -28zM217 385q0 -74 16.5 -139.5t44 -114.5t65.5 -76.5t81 -27.5t81 27.5 t66.5 76.5t45 114.5t16.5 139.5t-16.5 139.5t-45 114.5t-66.5 76.5t-81 27.5t-81 -27.5t-65.5 -76.5t-44 -114.5t-16.5 -139.5z" />
<glyph unicode="&#xf6;" horiz-adv-x="849" d="M23 385q0 82 31.5 155.5t86 128t127 86t156.5 31.5t157.5 -31.5t128 -86t86 -128t31.5 -155.5q0 -84 -31.5 -156.5t-86 -127t-128 -86t-157.5 -31.5t-156.5 31.5t-127 86t-86 127t-31.5 156.5zM190 1069q0 35 24 59.5t58 24.5q35 0 59.5 -24.5t24.5 -59.5t-24.5 -58.5 t-59.5 -23.5t-58.5 23.5t-23.5 58.5zM217 385q0 -74 16.5 -139.5t44 -114.5t65.5 -76.5t81 -27.5t81 27.5t66.5 76.5t45 114.5t16.5 139.5t-16.5 139.5t-45 114.5t-66.5 76.5t-81 27.5t-81 -27.5t-65.5 -76.5t-44 -114.5t-16.5 -139.5zM494 1069q0 35 23.5 59.5t58.5 24.5 t59 -24.5t24 -59.5t-24 -58.5t-59 -23.5t-58.5 23.5t-23.5 58.5z" />
<glyph unicode="&#xf7;" horiz-adv-x="858" d="M123 356v62h582v-62h-582zM340 59q0 35 23.5 58.5t58.5 23.5t58.5 -23.5t23.5 -58.5t-23.5 -58.5t-58.5 -23.5t-58.5 24t-23.5 58zM340 711q0 35 23.5 59.5t58.5 24.5t58.5 -25t23.5 -59q0 -35 -23.5 -58.5t-58.5 -23.5t-58.5 23.5t-23.5 58.5z" />
<glyph unicode="&#xf8;" horiz-adv-x="849" d="M23 385q0 82 31.5 155.5t86 128t127 86t156.5 31.5t157.5 -31.5t128 -86t86 -128t31.5 -155.5q0 -84 -31.5 -156.5t-86 -127t-128 -86t-157.5 -31.5t-156.5 31.5t-127 86t-86 127t-31.5 156.5zM137 0l522 774h73l-523 -774h-72zM217 385q0 -74 16.5 -139.5t44 -114.5 t65.5 -76.5t81 -27.5t81 27.5t66.5 76.5t45 114.5t16.5 139.5t-16.5 139.5t-45 114.5t-66.5 76.5t-81 27.5t-81 -27.5t-65.5 -76.5t-44 -114.5t-16.5 -139.5z" />
<glyph unicode="&#xf9;" horiz-adv-x="1024" d="M2 774h324v-190v-72t1 -62.5t1 -45.5v-17q0 -74 4 -138.5t21.5 -112.5t51 -76.5t93.5 -30.5q43 -2 73.5 13t52 39.5t36 56.5t22.5 67q18 80 14 182v46t2 89q0 55 2 125q-4 37 -32.5 61.5t-67.5 24.5h-20l-15 41h457l-14 -41h-21q-49 0 -78 -35q-4 -6 -12 -22t-8 -41 l-2 -494q0 -41 29.5 -70.5t70.5 -29.5h21l14 -39l-328 -2l2 57q-39 -33 -81 -52t-117 -19q-109 0 -178.5 31.5t-111.5 86t-58.5 127t-16.5 156.5l2 248q0 41 -29.5 69.5t-70.5 28.5h-21zM332 1108l158 55l178 -145l22 -45z" />
<glyph unicode="&#xfa;" horiz-adv-x="1024" d="M2 774h324v-190v-72t1 -62.5t1 -45.5v-17q0 -74 4 -138.5t21.5 -112.5t51 -76.5t93.5 -30.5q43 -2 73.5 13t52 39.5t36 56.5t22.5 67q18 80 14 182v46t2 89q0 55 2 125q-4 37 -32.5 61.5t-67.5 24.5h-20l-15 41h457l-14 -41h-21q-49 0 -78 -35q-4 -6 -12 -22t-8 -41 l-2 -494q0 -41 29.5 -70.5t70.5 -29.5h21l14 -39l-328 -2l2 57q-39 -33 -81 -52t-117 -19q-109 0 -178.5 31.5t-111.5 86t-58.5 127t-16.5 156.5l2 248q0 41 -29.5 69.5t-70.5 28.5h-21zM334 971l20 47l180 143l156 -55z" />
<glyph unicode="&#xfb;" horiz-adv-x="1024" d="M2 774h324v-190v-72t1 -62.5t1 -45.5v-17q0 -74 4 -138.5t21.5 -112.5t51 -76.5t93.5 -30.5q43 -2 73.5 13t52 39.5t36 56.5t22.5 67q18 80 14 182v46t2 89q0 55 2 125q-4 37 -32.5 61.5t-67.5 24.5h-20l-15 41h457l-14 -41h-21q-49 0 -78 -35q-4 -6 -12 -22t-8 -41 l-2 -494q0 -41 29.5 -70.5t70.5 -29.5h21l14 -39l-328 -2l2 57q-39 -33 -81 -52t-117 -19q-109 0 -178.5 31.5t-111.5 86t-58.5 127t-16.5 156.5l2 248q0 41 -29.5 69.5t-70.5 28.5h-21zM283 991l168 219h131l157 -219h-90l-133 123l-145 -123h-88z" />
<glyph unicode="&#xfc;" horiz-adv-x="1024" d="M2 774h324v-190v-72t1 -62.5t1 -45.5v-17q0 -74 4 -138.5t21.5 -112.5t51 -76.5t93.5 -30.5q43 -2 73.5 13t52 39.5t36 56.5t22.5 67q18 80 14 182v46t2 89q0 55 2 125q-4 37 -32.5 61.5t-67.5 24.5h-20l-15 41h457l-14 -41h-21q-49 0 -78 -35q-4 -6 -12 -22t-8 -41 l-2 -494q0 -41 29.5 -70.5t70.5 -29.5h21l14 -39l-328 -2l2 57q-39 -33 -81 -52t-117 -19q-109 0 -178.5 31.5t-111.5 86t-58.5 127t-16.5 156.5l2 248q0 41 -29.5 69.5t-70.5 28.5h-21zM276 1069q0 35 24 59.5t58 24.5q35 0 59.5 -24.5t24.5 -59.5t-24.5 -58.5t-59.5 -23.5 t-58.5 23.5t-23.5 58.5zM580 1069q0 35 23.5 59.5t58.5 24.5t59 -24.5t24 -59.5t-24 -58.5t-59 -23.5t-58.5 23.5t-23.5 58.5z" />
<glyph unicode="&#xfd;" horiz-adv-x="755" d="M-199 -403q0 43 31 74.5t76 31.5t75.5 -31.5t30.5 -74.5q0 -8 -4 -25q-2 -8 -2 -14q4 -16 38 -30.5t79 -9.5t91 38.5t73 115.5l80 271q-16 43 -41 111.5t-50.5 146.5t-51 155.5t-47 141t-35 104.5t-15.5 45q-20 39 -47 60.5t-49 21.5h-21l-14 41h262l180 -557l101 416 q12 41 -6.5 70.5t-59.5 29.5h-22l-13 41h320l-15 -41h-20q-23 0 -47.5 -7t-40.5 -24q-12 -10 -23.5 -23t-21.5 -46l-254 -967q-18 -68 -55 -121q-31 -47 -83.5 -84t-131.5 -37q-121 0 -194 49.5t-73 127.5zM199 971l20 47l180 143l156 -55z" />
<glyph unicode="&#xfe;" horiz-adv-x="993" d="M-100 -754q0 23 17 40.5t42 17.5t42 -17.5t17 -40.5q0 -16 -6 -28q41 12 72 48t43 95l2 1262l6 -15v748q0 41 -29.5 70.5t-70.5 29.5h-23l-12 41l459 41l-13 -39h-22q-41 0 -70.5 -29.5t-29.5 -70.5v-680q41 35 98 54.5t133 19.5q82 0 155.5 -32t128 -86t86 -128 t31.5 -158t-31.5 -156.5t-86 -127t-128 -86t-155.5 -31.5q-66 0 -126 20.5t-112 57.5l7 -598q0 -84 -24 -143.5t-60.5 -99.5t-80.5 -58.5t-85 -18.5q-49 0 -88 10.5t-68 44.5q-18 14 -18 43zM324 389q0 -74 19 -138.5t52 -113.5t74 -76.5t84 -27.5t81 27.5t66.5 76.5 t45 113.5t16.5 138.5t-16.5 139.5t-45 114.5t-66.5 77t-81 28q-47 0 -81 -15.5t-58.5 -41t-41 -58.5t-26.5 -66q-23 -80 -22 -178z" />
<glyph unicode="&#xff;" horiz-adv-x="755" d="M-199 -403q0 43 31 74.5t76 31.5t75.5 -31.5t30.5 -74.5q0 -8 -4 -25q-2 -8 -2 -14q4 -16 38 -30.5t79 -9.5t91 38.5t73 115.5l80 271q-16 43 -41 111.5t-50.5 146.5t-51 155.5t-47 141t-35 104.5t-15.5 45q-20 39 -47 60.5t-49 21.5h-21l-14 41h262l180 -557l101 416 q12 41 -6.5 70.5t-59.5 29.5h-22l-13 41h320l-15 -41h-20q-23 0 -47.5 -7t-40.5 -24q-12 -10 -23.5 -23t-21.5 -46l-254 -967q-18 -68 -55 -121q-31 -47 -83.5 -84t-131.5 -37q-121 0 -194 49.5t-73 127.5zM143 1069q0 35 24 59.5t58 24.5q35 0 59.5 -24.5t24.5 -59.5 t-24.5 -58.5t-59.5 -23.5t-58.5 23.5t-23.5 58.5zM447 1069q0 35 23.5 59.5t58.5 24.5t59 -24.5t24 -59.5t-24 -58.5t-59 -23.5t-58.5 23.5t-23.5 58.5z" />
<glyph unicode="&#x152;" horiz-adv-x="1503" d="M16 766q0 162 52.5 301t142.5 241.5t211 162t260 61.5v2h205h577v-12v-45v-134l-41 13v20q0 47 -37 78q-27 23 -61 23h-12h-426v-668h225q35 0 64 22q35 29 34 78v21l41 12v-123v-55v-123l-41 12v21q0 49 -34 78q-29 23 -64 22l-225 2v-719h479q33 0 61 23q35 29 35 76 v20l41 14v-133v-45v-12h-616h-203q-139 2 -260 61.5t-212 163t-143.5 242.5t-52.5 299zM229 770q0 -145 36 -270t97.5 -218.5t144.5 -147.5t177 -56l-2 1382q-94 -2 -176 -56t-143.5 -146.5t-97.5 -218.5t-36 -269z" />
<glyph unicode="&#x153;" horiz-adv-x="1458" d="M23 385q0 82 31.5 155.5t86 128t127 86t156.5 31.5t157.5 -31.5t128 -86t86 -128t31.5 -155.5q0 -84 -31.5 -156.5t-86 -127t-128 -86t-157.5 -31.5t-156.5 31.5t-127 86t-86 127t-31.5 156.5zM217 385q0 -74 16.5 -139.5t44 -114.5t65.5 -76.5t81 -27.5t81 27.5 t66.5 76.5t45 114.5t16.5 139.5t-16.5 139.5t-45 114.5t-66.5 76.5t-81 27.5t-81 -27.5t-65.5 -76.5t-44 -114.5t-16.5 -139.5zM628 389q0 82 32 155.5t86.5 128t127 86.5t156.5 32q82 0 155.5 -32t128 -86.5t86 -128t31.5 -155.5h-194h-357h-59q0 -74 23.5 -132t61.5 -99 t83 -62.5t88 -21.5q88 0 166 53t110 164h66q-16 -66 -52 -121t-87 -96t-115.5 -63.5t-134.5 -22.5q-84 0 -156.5 31.5t-127 86t-86.5 127t-32 156.5zM823 444l412 2q-6 63 -24.5 119t-46.5 95.5t-61.5 63.5t-72.5 24t-74 -24t-62.5 -63.5t-46 -96t-24.5 -120.5z" />
<glyph unicode="&#x178;" horiz-adv-x="1116" d="M0 1536h356l-12 -41h-22q-41 0 -67 -26.5t1 -71.5l246 -539l229 539q18 43 -3 70.5t-62 27.5h-23l-12 41h481l-14 -41h-21q-23 0 -42 -3t-36 -17q-12 -10 -29.5 -27.5t-33.5 -50.5l-283 -627v-647q4 -37 32 -61.5t67 -24.5h22l12 -41h-4h-471l13 41h20q47 0 78 35 q10 14 16 29.5t6 33.5v662l-278 600q-20 35 -31.5 49t-23.5 24q-31 25 -78 25h-21zM323 1724q0 35 24 59.5t58 24.5q35 0 59.5 -24.5t24.5 -59.5t-24.5 -58.5t-59.5 -23.5t-58.5 23.5t-23.5 58.5zM627 1724q0 35 23.5 59.5t58.5 24.5t59 -24.5t24 -59.5t-24 -58.5t-59 -23.5 t-58.5 23.5t-23.5 58.5z" />
<glyph unicode="&#x2c6;" horiz-adv-x="598" d="M74 991l168 219h131l157 -219h-90l-133 123l-145 -123h-88z" />
<glyph unicode="&#x2dc;" horiz-adv-x="688" d="M63 1112q25 23 52 41q23 16 51.5 29.5t56.5 13.5h6q43 0 80 -17.5t70 -37t60.5 -35.5t49.5 -16q23 0 45.5 9t38.5 19q20 12 37 29l17 -57q-27 -25 -54 -43q-23 -16 -51 -28.5t-57 -12.5h-4q-43 0 -80 17t-69.5 36.5t-61.5 36t-51 16.5q-23 0 -45.5 -9t-38.5 -20 q-20 -12 -37 -28z" />
<glyph unicode="&#x2000;" horiz-adv-x="936" />
<glyph unicode="&#x2001;" horiz-adv-x="1872" />
<glyph unicode="&#x2002;" horiz-adv-x="936" />
<glyph unicode="&#x2003;" horiz-adv-x="1872" />
<glyph unicode="&#x2004;" horiz-adv-x="624" />
<glyph unicode="&#x2005;" horiz-adv-x="468" />
<glyph unicode="&#x2006;" horiz-adv-x="312" />
<glyph unicode="&#x2007;" horiz-adv-x="312" />
<glyph unicode="&#x2008;" horiz-adv-x="234" />
<glyph unicode="&#x2009;" horiz-adv-x="374" />
<glyph unicode="&#x200a;" horiz-adv-x="104" />
<glyph unicode="&#x2010;" horiz-adv-x="745" d="M88 549v61h582v-61h-582z" />
<glyph unicode="&#x2011;" horiz-adv-x="745" d="M88 549v61h582v-61h-582z" />
<glyph unicode="&#x2012;" horiz-adv-x="745" d="M88 549v61h582v-61h-582z" />
<glyph unicode="&#x2013;" horiz-adv-x="935" d="M102 547v61h754v-61h-754z" />
<glyph unicode="&#x2014;" horiz-adv-x="1320" d="M94 551v61h1131v-61h-1131z" />
<glyph unicode="&#x2018;" horiz-adv-x="227" d="M29 1081q0 49 11 85t28 59q18 27 41 45l16 -29q-16 -39 -16 -76q33 -2 55 -25.5t22 -58.5q0 -33 -23.5 -56.5t-56.5 -23.5t-55 24t-22 56z" />
<glyph unicode="&#x2019;" horiz-adv-x="249" d="M45 1178q0 35 24.5 58.5t59.5 23.5t58.5 -24t23.5 -58q0 -51 -13.5 -87t-29.5 -59q-18 -27 -41 -45l-18 29q10 23 14 42t4 36q-35 2 -58.5 25.5t-23.5 58.5z" />
<glyph unicode="&#x201a;" horiz-adv-x="258" d="M45 68q0 35 24.5 58.5t59.5 23.5t58.5 -24t23.5 -58q0 -51 -13.5 -87t-29.5 -59q-18 -27 -41 -45l-18 29q10 23 14 42t4 36q-35 2 -58.5 25.5t-23.5 58.5z" />
<glyph unicode="&#x201c;" horiz-adv-x="432" d="M29 1081q0 49 11 85t28 59q18 27 41 45l16 -29q-16 -39 -16 -76q33 -2 55 -25.5t22 -58.5q0 -33 -23.5 -56.5t-56.5 -23.5t-55 24t-22 56zM233 1081q0 49 11.5 85t27.5 59q18 27 41 45l17 -29q-16 -39 -17 -76q33 -2 55.5 -25.5t22.5 -58.5q0 -33 -23.5 -56.5 t-56.5 -23.5t-55.5 24t-22.5 56z" />
<glyph unicode="&#x201d;" horiz-adv-x="442" d="M45 1178q0 35 24.5 58.5t59.5 23.5t58.5 -24t23.5 -58q0 -51 -13.5 -87t-29.5 -59q-18 -27 -41 -45l-18 29q10 23 14 42t4 36q-35 2 -58.5 25.5t-23.5 58.5zM250 1178q0 35 24.5 58.5t59.5 23.5t58.5 -24t23.5 -58q0 -51 -13.5 -87t-29.5 -59q-18 -27 -41 -45l-19 29 q10 23 14.5 42t4.5 36q-35 2 -58.5 25.5t-23.5 58.5z" />
<glyph unicode="&#x201e;" horiz-adv-x="440" d="M35 57q0 35 24.5 58.5t59.5 23.5t58.5 -23.5t23.5 -58.5q0 -51 -13.5 -87t-29.5 -58q-18 -27 -41 -45l-19 29q10 23 14.5 42t4.5 35q-35 2 -58.5 26t-23.5 58zM240 57q0 35 24.5 58.5t59.5 23.5t58.5 -23.5t23.5 -58.5q0 -51 -13.5 -87t-30.5 -58q-18 -27 -40 -45l-19 29 q10 23 14.5 42t4.5 35q-35 2 -58.5 26t-23.5 58z" />
<glyph unicode="&#x2022;" horiz-adv-x="450" d="M37 688q0 37 14.5 70t39 57.5t58 38.5t70.5 14t70 -14t57.5 -38.5t38.5 -57.5t14 -70t-14 -70.5t-38.5 -58t-57.5 -39t-70 -14.5q-76 0 -129 53t-53 129z" />
<glyph unicode="&#x2026;" horiz-adv-x="712" d="M43 68q0 35 24.5 58.5t59.5 23.5t58.5 -24t23.5 -58q0 -35 -23.5 -58.5t-58.5 -23.5t-59.5 23.5t-24.5 58.5zM266 68q0 35 24.5 58.5t59.5 23.5t58.5 -24t23.5 -58q0 -35 -23.5 -58.5t-58.5 -23.5t-59.5 23.5t-24.5 58.5zM489 68q0 35 25 58.5t59 23.5q35 0 58.5 -24 t23.5 -58q0 -35 -23.5 -58.5t-58.5 -23.5t-59.5 23.5t-24.5 58.5z" />
<glyph unicode="&#x202f;" horiz-adv-x="374" />
<glyph unicode="&#x2039;" horiz-adv-x="735" d="M53 782l510 512h90l-512 -512l512 -514h-90z" />
<glyph unicode="&#x203a;" horiz-adv-x="696" d="M37 276l512 515l-512 512h90l510 -512l-510 -515h-90z" />
<glyph unicode="&#x205f;" horiz-adv-x="468" />
<glyph unicode="&#x20ac;" horiz-adv-x="1181" d="M16 770q0 162 53.5 304.5t144.5 249t214 167.5t262 61q76 4 146 -12q59 -14 123.5 -51t109.5 -115q12 -20 21.5 -21t16.5 10t12 29.5t5 39.5v22l41 12v-397l-92 16q0 92 -29.5 167t-80 129.5t-121 83t-152.5 28.5q-86 0 -161.5 -46t-136 -127t-100.5 -190.5t-54 -234.5 h491v-61h-498q-2 -14 -2 -28.5v-31.5v-24.5t2 -24.5h498v-61h-493q12 -127 53 -239t101.5 -195t137 -130t162.5 -47t157 37t121 95.5t77.5 133t27.5 150.5l84 18q0 -92 -28.5 -182t-86 -160.5t-145.5 -113.5t-207 -43q-139 0 -262 61.5t-214 168t-144.5 248.5t-53.5 304z " />
<glyph unicode="&#x2122;" horiz-adv-x="903" d="M16 1477v43v16v2h428h58l143 -369l137 367l2 2h29h82l-6 -12h-4q-33 0 -33 -31v-410q0 -14 6 -20q8 -12 27 -12h4l6 -15h-113v416l-153 -428l-170 438v-426h-74l6 15h6q14 0 27 12q4 8 4 20l4 410v2q-8 12 -14 16q-6 6 -21 7h-2h-127v-441q0 -10 9.5 -18t21.5 -8h8l4 -15 h-157l6 15h6q12 0 21.5 8t9.5 18v441h-129h-7q-12 0 -20 -7q-12 -12 -12 -26v-4z" />
<glyph unicode="&#x25fc;" horiz-adv-x="778" d="M0 0v778h778v-778h-778z" />
<glyph unicode="&#xfb01;" horiz-adv-x="870" d="M2 0l14 41h21q41 0 70.5 28.5t29.5 69.5v2v-2l2 656h-137v24h137v297v101q0 80 25.5 139t71 99t105.5 59.5t132 19.5q115 0 186.5 -52t81.5 -145q2 -6 2 -16q0 -45 -31.5 -76t-74.5 -31q-45 0 -76 31t-31 76q0 53 41 84q-10 23 -34.5 41t-79.5 18h-6q-51 0 -87 -42 t-36 -101v-502h84l2 2l323 2v-684v2v-2q0 -41 30 -69.5t71 -28.5h20l14 -41h-411h-47h-412zM328 139q0 -41 29.5 -69.5t70.5 -28.5h21q41 0 69.5 28.5t28.5 69.5v2v541q0 35 -23 61q-12 16 -39.5 32t-50.5 20h-106v-654v-2z" />
<glyph unicode="&#xfb02;" horiz-adv-x="882" d="M-2 2l12 41h23q41 0 69.5 28.5t28.5 69.5l2 654h-135v24h135l2 299v99q0 84 23.5 144t60.5 100t81 58.5t85 18.5q4 0 6 -1t6 -1h351v-1395q0 -41 28.5 -69.5t69.5 -28.5h22l13 -41h-424h-459zM322 141q0 -41 29.5 -69.5t70.5 -28.5h12h2h21q41 0 70.5 28.5t29.5 69.5 l-2 1213q0 37 -23 63q-31 37 -75 37h-21l-2 2q-59 -4 -84.5 -42t-25.5 -91l-2 -504h75v-24h-75v-654z" />
</font>
</defs>
</svg>
